<svg xmlns="http://www.w3.org/2000/svg" viewBox="0 0 50 50"><path d="M49.6 19.5L25.3 8.4c-.2-.1-.4-.1-.5 0L.4 19.5c-.3.1-.4.3-.4.5 0 .3.1.4.4.6l6.7 3.1v12.4c0 .1.1.3.1.3.1.2 2.8 4.2 17.7 4.2h.3c4.1 0 7.6-.3 10.5-.9l-.3 1.7c0 .2 0 .4.1.5.1.1.3.2.5.2h3c.2 0 .4-.1.5-.2.1-.1.2-.3.1-.5l-.4-2.7c2.8-1 3.6-2.2 3.7-2.3s.1-.2.1-.3V23.6l6.6-3c.3-.1.4-.3.4-.6s-.1-.4-.4-.5zM25.3 39.3H25c-12.5 0-16-2.9-16.5-3.5V24.3l16.3 7.5c.1.1.2.1.3.1s.2 0 .3-.1l11.5-5.3v5.3c-1.2.3-2.1 1.3-2.1 2.6 0 1 .6 1.9 1.3 2.3l-.2 1.7c-2.8.6-6.4.9-10.6.9zm12.2-3.6c-.8 0-1.4-.6-1.4-1.4s.6-1.4 1.4-1.4 1.4.6 1.4 1.4-.6 1.4-1.4 1.4zm-.6 5.1l.5-3.8h.4l.1 1.2v.4l.3 2.4h-1.3zm4.9-5c-.3.3-1 .9-2.6 1.5l-.2-.8c.7-.5 1.2-1.3 1.2-2.2 0-1.3-.9-2.3-2.1-2.6v-5.9l3.7-1.7v11.7zm-4.2-11.1L25.8 19c-.3-.1-.7 0-.8.3s0 .7.3.8l10.8 5.2L25 30.4 2.2 20 25 9.7 47.8 20l-10.2 4.7z"/></svg>