<svg xmlns="http://www.w3.org/2000/svg" viewBox="0 0 590.7 468"><circle fill="#0378BC" cx="41.6" cy="294.8" r="41.6"/><circle fill="#FFF" stroke="#143257" stroke-width="7" stroke-miterlimit="10" cx="111.6" cy="121.2" r="20.6"/><circle fill="#0378BC" cx="380.3" cy="199.9" r="41.6"/><circle fill="#0378BC" cx="541.8" cy="98.2" r="26.2"/><circle fill="#0378BC" cx="194.5" cy="182.7" r="26.2"/><path fill="none" stroke="#143257" stroke-width="7" stroke-miterlimit="10" d="M77.8 267.5l74.3-61.3m84.8-24.9l94.7 17.6m90.3-20l79.9-53.7M53.1 230.5l74.3-61.2m-2.1 21.8l2.1-21.8-24.9 1.3M403.4 138.3l78.5-55.8m-3.7 21.7l3.7-21.7-25-.4"/><path fill="#0378BC" d="M0 438h590.2v30H0z"/><path fill="#FFF" stroke="#143257" stroke-width="7" stroke-miterlimit="10" d="M176.5 243.7h55V412h-55zM91 301.5h55v110.6H91zM6.1 357.1h55v55h-55zM262 220.7h55v191.4h-55zm180.7-29.8h55v221.2h-55zm-88 71.2h55V412h-55zm177.5-105.6h55v255.6h-55z"/><circle fill="#FFF" cx="194.1" cy="61.6" r="56.3"/><g fill="none" stroke="#143257" stroke-width="7" stroke-miterlimit="10"><circle cx="194.1" cy="59.8" r="56.3"/><path d="M247.6 77.5l-53.5-15.7-17.4-55.6m17.9 55.7l38.9-39.4"/></g></svg>