<svg xmlns="http://www.w3.org/2000/svg" viewBox="0 0 605.1 540.8"><path fill="#FFF" stroke="#143257" stroke-width="7" stroke-miterlimit="10" d="M3.5 94.9H566v355.5H3.5z"/><path fill="#FFF" stroke="#143257" stroke-width="7" stroke-miterlimit="10" d="M29 120.4h508.5v304.5H29z"/><path fill="#0378BC" d="M50 138.4h466.4v267H50z"/><path fill="none" stroke="#143257" stroke-width="7" stroke-miterlimit="10" d="M50.4 171.3h466M89 288.4h279v75H89zm315-69h79.5v144H404z"/><path fill="#143257" d="M64.4 149.3h388v10h-388zm393 0h12v10h-12zm17 0h12v10h-12zm17 0h13v10h-13z"/><path fill="#FFF" d="M89 194h175.9v17H89zm-78 38.7h175.9v17H11z"/><path fill="#FFF" stroke="#143257" stroke-width="7" stroke-miterlimit="10" d="M327.4 493.3h-91l7-26h76zm-267.7 15h444.4v29H59.7z"/><path d="M509.4 0v47.3m61.3 14h-47.3M538.6 33l-19.4 19m52 9l-47.3-.1m-14.1 61.3l.1-47.4m28.3 15.3l-19-19.5m-8.9 52.1l.1-47.4m-61.3-14.1l47.3.1m-15.2 28.3l19.4-19m-52-8.9l47.3.1M510 .5l-.1 47.3m-28.2-15.2L500.6 52M586.2 120.4h18.9m-29.9 14l12.8 13.9m-11-40.7l11.3-15.2" fill="none" stroke="#143257" stroke-width="7" stroke-miterlimit="10"/></svg>