<svg xmlns="http://www.w3.org/2000/svg" viewBox="0 0 530.4 618.9"><path fill="none" stroke="#143257" stroke-width="7" stroke-miterlimit="10" d="M231.6 90.1l32.5 24m18.2-71.2l21.3 34.4m140.3-30.7L421 79.9m-61-55.7v40.4m131.2 31.6l-34.1 21.7"/><path fill="#FFF" stroke="#143257" stroke-width="7" stroke-miterlimit="10" d="M40.3 161.2h247.9v367.5H40.3z"/><path fill="#03639B" d="M73 192.7h175.9v17H73zm0 41.3h88v17H73zM0 279.1h117v17H0z"/><path fill="#FFF" stroke="#143257" stroke-width="7" stroke-miterlimit="10" d="M85.2 613.4c0 1.7 2.1 2.6 3.4 1.4l100.8-83.9c.4-.4.9-.6 1.4-.6l177.5-.3c.4 0 .9-.1 1.2-.4l90.1-84.3s8.7-16.2-2.9-27.6c-12.7-12.3-24.3-6-24.3-6L376 456.6H215s-6.3-.4-6.3-7.9c0-9.6 6.3-9.1 6.3-9.1h81s13.7-4 13.7-22-13.7-21-13.7-21H168.8c-.5 0-1 .2-1.3.5l-42 32.7L81.7 464l3.5 149.4zm246.3-295.9h60l.3-49c38.2-13.6 65.5-50.1 65.5-92.9 0-54.5-44.1-98.6-98.6-98.6-54.5 0-98.6 44.2-98.6 98.6 0 45.1 30.2 83 71.5 94.8l-.1 47.1z"/><path fill="none" stroke="#143257" stroke-width="7" stroke-miterlimit="10" d="M355.5 318V203c-16-2.2-23.4.3-23.3 11 .1 13.4 34 8.3 34 8.3"/><path fill="none" stroke="#143257" stroke-width="7" stroke-miterlimit="10" d="M366.3 317.5L366 203c16.2-2.2 23.4.3 23.3 11-.1 13.4-34 8-34 8"/><path fill="#143257" d="M328.7 331H396v40h-67.3zm153.6-89.9H530v261.7h-47.7zm23.8-85.1L494 192h24z"/><path fill="#FFF" stroke="#143257" stroke-width="7" stroke-miterlimit="10" d="M496.6 195.5l-10.3 34h39.4l-10.3-34zm29 321v2.8c0 5.6-4.6 14.4-10.2 14.3l-18.5-.1c-5.6 0-11.3-8.9-11.3-14.5v-2.8l40 .3z"/><path fill="#0378BC" d="M41 0s-3.7 210.8 0 214.5L249.8 0H41zm31.5 28h104.7L70.4 146.8 72.5 28z"/></svg>