<svg xmlns="http://www.w3.org/2000/svg" viewBox="0 0 50 50" width="50" height="50" overflow="scroll"><path class="semi-transparent" d="M25 50C11.2 50 0 38.8 0 25S11.2 0 25 0s25 11.2 25 25-11.2 25-25 25zm0-48.1C12.3 1.9 1.9 12.3 1.9 25c0 12.7 10.4 23.1 23.1 23.1 12.7 0 23.1-10.4 23.1-23.1C48.1 12.3 37.7 1.9 25 1.9z"/><path d="M34.4 30.1L31 26.6c-.9-.8-1.9-.5-2.4 0l-1.8 1.8c-.7-.3-2-1.4-2.8-2.3-.8-.9-2-2.2-2.3-2.8l1.8-1.8c.4-.5.8-1.5 0-2.4L20 15.7h-.1c-.5-.3-1.5-.5-2.2.2L16 17.5c-.1.1-2 3.2 1.1 8 .1.2 1.2 2.2 3.1 4.1l.2.2c1.9 1.9 3.9 3 4.1 3.1 2.1 1.4 3.9 1.7 5.3 1.7 1.7 0 2.7-.6 2.7-.7l1.7-1.7c.7-.6.4-1.6.2-2.1z"/></svg>