<svg xmlns="http://www.w3.org/2000/svg" viewBox="0 0 50 50"><path d="M13.2 4.038c-5.8 0-13.2 5.1-13.2 15.3 0 5.7 3.6 11 8.3 15.6s10.7 8.8 16 11.9c.4.3 1 .3 1.4 0 5.3-3.2 11.2-7.3 16-11.9s8.3-10 8.3-15.6c0-10.2-7.4-15.3-13.2-15.3-5.7 0-9.4 2.9-11.8 6-2.4-3.2-6.1-6-11.8-6zm-.5 1.9c5.9 0 9.1 3.2 11.1 6.5.4.7 1.3.9 2 .5.2-.1.4-.3.5-.5 2-3.4 5.2-6.5 11.1-6.5 4.3 0 10.9 3.8 10.9 13 0 4.7-3.1 9.6-7.8 14.3-4.6 4.4-10.3 8.4-15.5 11.6-5.2-3.2-10.9-7.1-15.4-11.5-4.6-4.7-7.8-9.7-7.8-14.3 0-9.2 6.6-13.1 10.9-13.1z"/></svg>