<svg xmlns="http://www.w3.org/2000/svg" width="500" height="160" viewBox="0 0 500 160" overflow="scroll"><style>.st0{fill:#fff}.st1{fill:#0177bc}</style><path class="st0 text-top" d="M247.5 104.5h22.3c10.2 0 15.4 4.7 15.4 12.6 0 8.9-6.2 11.2-7.7 11.7v.1c2.8.4 6.9 2.5 6.9 9.9 0 5.4.8 10.4 2.5 12.3h-8.7c-1.2-2-1.2-4.6-1.2-6.9 0-8.6-1.8-12.3-9.3-12.3h-12v19.2h-8.2v-46.6zm8.2 21.2h13.4c5.2 0 8-2.5 8-7.4 0-5.9-3.9-7.1-8.1-7.1h-13.3v14.5zm38-21.2h33.6v7.1h-25.4v12.2h23.5v6.7h-23.5V144h25.9v7h-34v-46.5zm55.2 0h8.7l18 46.6h-8.7l-4.4-12.3h-18.6l-4.4 12.3H331l17.9-46.6zm-3.1 28H360l-7-20h-.2l-7 20zm63.8-13.2c-1.4-5.4-4.8-9.3-11.6-9.3-10 0-14.2 8.8-14.2 17.8 0 8.9 4.2 17.8 14.2 17.8 7.2 0 11.2-5.4 11.9-12.2h8c-.7 11.2-8.6 18.9-19.8 18.9-14 0-22.3-11.1-22.3-24.4 0-13.3 8.4-24.4 22.3-24.4 10.5.1 18.8 5.9 19.8 15.9h-8.3zm14.9-14.8h8.2V123h21.2v-18.5h8.2v46.6h-8.2v-21h-21.2v21h-8.2v-46.6z"/><path class="st0 text-bottom" d="M9.2 76.3c5.2 4.4 13 6.6 23.4 6.6 10.1 0 17.9-2.1 23.4-6.4 5.5-4.6 8.2-11 8.2-19.2 0-3.8-.7-7.3-2.5-10.5-1.6-2.9-4.4-5.7-7.7-7.4-2.1-1.1-3.4-1.5-6-2.3-2.8-.9-16.8-4.7-18.2-5-7.9-2-12.8-4.6-12.8-9.2.4-8.9 8.7-9.6 13.3-9.6 4.7 0 8.5 1 11.2 3 4.9 3.8 4.4 8.7 4.4 8.7h15.6c-.3-7.6-3.1-13.8-8.2-18.6C48.1 2.1 40.9 0 31.6 0 21.7 0 14.1 2.1 8.9 6.2c-5.2 4.3-7.8 10.2-7.8 17.6 0 9.6 4.6 15.3 8.7 17.9 2.5 1.5 8.2 3.8 15.6 5.3l6.2 1.3c10.7 2.6 16.9 5.9 16.7 11.3-.1 3.2-1.2 5.7-3.7 7.3-2.2 1.5-6 2.5-10.8 2.5-5.3 0-9.5-1.1-12.6-3.2-2.9-1.8-4.7-5-5.3-9.6H0c.5 8.7 3.5 15.3 9.2 19.7m73.9 20.3c0 4.1-3.2 7.8-7.8 7.8h-7.8V47.1c.9-15.3 6.5-27.4 29.6-28.2 10 .1 17.3 4.1 21.6 9.1 4.6 6 6.6 13.4 6.6 22.8 0 9.7-2.3 17.5-6.9 23.5-4.6 5.8-10.5 8.7-17.7 8.7-10.8 0-16.1-4.5-17.5-5.3-.1.5-.1 18.9-.1 18.9zm26.3-45.1c0-6-1.1-18.7-13.4-18.7-11.6 0-12.9 12.4-12.9 18.7 0 15.9 9.1 18 13.4 18 11.1 0 12.9-11.9 12.9-18zm47.5-19.1c9.8-.1 11.4 8.2 11.7 12.4h-23.4s-.2-12.2 11.7-12.4zm.6 36.9c-4-.2-11.5-1-12.2-14.2H185v-4.8c-.3-10-2.7-17.4-7.3-23-5-5.5-12.1-8.2-21.3-8.2-8.7 0-15.5 2.8-20.4 8.5-4.7 5.5-7.1 13.1-7.1 22.9 0 10.2 2.4 18.1 7.3 23.6 4.9 5.7 11.7 8.5 20.4 8.5 7.2 0 13.1-1.8 17.9-5.3 4.7-3.4 8-8.3 9.6-14.7h-13.8c-2 5.8-7.2 7-12.8 6.7zm71.3-6.7h15.1s-4.1 19.9-26.8 19.9c-22.8 0-28.4-18.3-28.4-30.3s2.1-32.5 27.5-33.2c23.4-.3 27.3 19.9 27.3 19.9h-16s-1.6-6.9-11.1-6.6c-9.5.2-12 9.2-12 17.7s2.1 19.2 12.7 19.2c9.9.4 10.8-5.1 11.7-6.6zm34.5-25.8h9.4V20.7h-9.4V10.4c0-2.8-1.6-7.8-7.6-7.8h-8.3V70c0 7 2.7 11.2 8.6 11.2h7.2l.1-44.4zm26.2 44.5V49.9c0-4.6 1.1-7.9 3.2-10.1 2.1-2.1 5.4-3.2 9.9-3.2h5.3V20.4s-8.3-.2-14.3 1.6c-3.9 1.2-7.3 2.7-10.2 5-3.1 2.4-5.5 5.7-7.2 9.7-1.8 4-2.6 9.1-2.6 15v29.6h15.9zm22.9-60.8h16v39S327.8 70 338.9 70c10.5 0 10.8-9.4 10.8-10.1V28s.5-7.6 7.5-7.6h8.3v36.2c-.1 2 2.1 25.9-26.6 25.8-28.4 0-26.4-24.2-26.6-25.7V20.5zm111.1 61h-15.9V42.4c0-4.5-1.9-10.6-10.8-10.6-8.8 0-10.6 6.9-10.6 10.6v39.2h-16.1v-36c0-10.4 3.1-16.8 8.2-21 5-4.1 11.5-5.4 18.1-5.8 3.5 0 7 .4 10.4 1.2 3.4.8 6.4 2.3 9.2 4.6 2.3-2 5-3.4 8.2-4.3 3.1-.8 6.4-1.5 9.8-1.5 19.7-.1 27.6 8.9 28.2 11.8v50.9H453c-2.3 0-7.8-1.6-7.8-7.8V42.4c0-4.4-1.5-10.6-10.8-10.6-9.2 0-10.8 6.9-10.8 10.6v39.1z"/><path class="st1 arrow" d="M466.5 30.6v50.8L500 56"/></svg>