<svg id="Layer_1" xmlns="http://www.w3.org/2000/svg" viewBox="0 0 68.7 26.2"><style>.st0{fill:#00629b}</style><title>3</title><path class="st0" d="M5.9 10.7c-.6-.1-2-.1-2-.1h-.1s-1.4 0-2 .1c-1 .1-1.8.1-1.8 2.1v11.4c0 .9.8 1.7 1.8 1.6h4c.9.1 1.8-.6 1.9-1.5V12.8c-.1-2-.8-1.9-1.8-2.1zm-2.9.4h1.5c.1 0 .1 0 .1.1s0 .1-.1.1H3s-.1-.1 0-.2c-.1 0 0 0 0 0zm1.7 14.1c0 .1-.1.1-.1.1H3.1c-.1 0-.1-.1-.1-.1V25c0-.1.1-.1.1-.1h1.4c.1 0 .1.1.1.1v.2zM7 23.8H.5V12.3H7v11.5zM14.6 21.9h28.5c.5 0 .8-.4.8-.8V.8c.1-.4-.3-.8-.8-.8H14.6c-.5 0-.8.4-.8.8v20.3c0 .4.4.8.8.8zm.9-20.3h26.9v18.6H15.5V1.6zM45.9 24.2H11.7c-.6 0-1 .4-1 1s.4 1 1 1h34.1c.6 0 1-.4 1-1s-.4-1-.9-1zM50.8 20.1c-.2 0-.5-.2-.5-.5 0-.2.2-.4.5-.4s.5.2.5.4-.3.5-.5.5zm16.8-.3c-.1 0-.2-.1-.2-.2s.1-.1.2-.1.2.1.2.1-.1.2-.2.2zm-1-6v11.7H51.8V13.7l14.8.1zm2.1.3c0-.5-.4-.9-.9-.9H50.6c-.5 0-.9.4-.9.9v11.2c0 .5.4.9.9.9h17.2c.5 0 .9-.4.9-.9V14.1z"/></svg>