<svg data-name="Layer 1" xmlns="http://www.w3.org/2000/svg" viewBox="0 0 68.68 26.16"><title>3</title><path d="M5.87 10.72c-.57-.08-2-.08-2-.08h-.1s-1.44 0-2 .08c-1 .14-1.77.12-1.77 2.06v11.44a1.7 1.7 0 0 0 1.78 1.62h4a1.7 1.7 0 0 0 1.88-1.5V12.77c-.02-1.93-.79-1.92-1.79-2.05zm-2.83.38h1.45a.095.095 0 1 1 0 .19H3.04a.095.095 0 0 1 0-.19zm1.62 14.06a.14.14 0 0 1-.14.14H3.09a.15.15 0 0 1-.13-.14V25a.14.14 0 0 1 .14-.14h1.42a.14.14 0 0 1 .14.14zm2.38-1.38H.49V12.34h6.55zM14.64 21.88h28.5a.82.82 0 0 0 .82-.82V.82a.82.82 0 0 0-.82-.82h-28.5a.82.82 0 0 0-.82.82V21.1a.82.82 0 0 0 .82.78zm.82-20.24h26.9v18.6h-26.9zM45.88 24.16H11.73a1 1 0 1 0 0 2h34.15a1 1 0 0 0 0-2zM50.78 20.1a.45.45 0 1 1 .45-.45.45.45 0 0 1-.45.45zm16.83-.3a.15.15 0 1 1 .15-.15.15.15 0 0 1-.15.15zm-1-6v11.73h-14.8V13.72zm2.07.28a.87.87 0 0 0-.87-.87H50.62a.87.87 0 0 0-.88.86v11.18a.87.87 0 0 0 .87.87h17.16a.87.87 0 0 0 .87-.87z"/></svg>