<svg data-name="Layer 1" xmlns="http://www.w3.org/2000/svg" viewBox="0 0 59.24 31.68"><title>1</title><path d="M24.78 30.35l-.72.84h21.32l-.67-.84H24.78m34-1.48V.5H10.64l.09 28.5h22.62v1.39h2.79v-1.52h22.6m-.7-27.61v26.07H11.42V1.26z"/><path d="M11.42 27.33V1.26h46.62v26.07zm24.69 3v-1.46h22.63V.5h-48.1l.09 28.5h22.62v1.39h11.36l.67.84H24.05l.72-.84h8.58" fill="none" stroke="#00629b" stroke-linecap="round" stroke-linejoin="round"/><path d="M5.87 16.32c-.57-.08-2-.08-2-.08h-.1s-1.44 0-2 .08c-1 .14-1.77.12-1.77 2.06v11.44a1.7 1.7 0 0 0 1.78 1.62h4a1.7 1.7 0 0 0 1.88-1.5V18.37c-.02-1.93-.79-1.92-1.79-2.05zm-2.83.38h1.45a.095.095 0 1 1 0 .19H3.04a.095.095 0 0 1 0-.19zm1.62 14.06a.14.14 0 0 1-.14.14H3.09a.15.15 0 0 1-.13-.14v-.21a.14.14 0 0 1 .14-.14h1.42a.14.14 0 0 1 .14.14zm2.38-1.38H.49V17.94h6.55z"/></svg>