<svg id="Layer_1" xmlns="http://www.w3.org/2000/svg" viewBox="0 0 59.3 31.7"><style>.st0{fill:#00629b}</style><title>1</title><path class="st0" d="M58.8 0H10.7c-.1 0-.3.1-.4.1s-.1.2-.1.4l.1 28.5c0 .3.2.5.5.5h22.1v.4h-8.1c-.1 0-.3.1-.4.2l-.7.8c-.1.1-.2.4-.1.5s.3.3.5.3h21.3c.2 0 .4-.1.5-.3.1-.2.1-.4-.1-.5l-.7-.9c-.1-.1-.2-.2-.4-.2h-8.1v-.5h22.1c.3 0 .5-.2.5-.5V.5c.1-.3-.1-.5-.4-.5zM12 26.8v-25h45.6v25.1H12v-.1zM5.9 16.3c-.6-.1-2-.1-2-.1h-.1s-1.4 0-2 .1c-1 .1-1.8.1-1.8 2.1v11.4c0 .9.8 1.7 1.8 1.6h3.9c.9.1 1.8-.6 1.9-1.5V18.4c.1-2-.7-1.9-1.7-2.1zm-2.8.4h1.4c.1 0 .1 0 .1.1s0 .1-.1.1H3.1c-.1 0-.1-.1 0-.2-.1 0-.1 0 0 0zm1.6 14.1c0 .1-.1.1-.1.1H3.1c-.1 0-.1-.1-.1-.1v-.2c0-.1.1-.1.1-.1h1.4c.1 0 .1.1.1.1l.1.2zm2.4-1.4H.5V17.9h6.6v11.5z"/></svg>