<svg id="Layer_1" xmlns="http://www.w3.org/2000/svg" viewBox="0 0 71 31.7"><style>.st0{fill:#00629b}</style><title>4</title><path class="st0" d="M48.6 0H.5C.4 0 .2.1.1.1S0 .4 0 .5L.1 29c0 .3.2.5.5.5h22.1v.4h-8.1c-.1 0-.3.1-.4.2l-.7.8c-.1.1-.2.4-.1.5.1.2.3.3.5.3h21.3c.2 0 .4-.1.5-.3.1-.2.1-.4-.1-.5l-.6-.8c-.1-.1-.2-.2-.4-.2h-8.1v-.5h22.1c.3 0 .5-.2.5-.5V.5c0-.3-.2-.5-.5-.5zM1.8 26.8v-25h45.6v25.1H1.8zM53.1 24.7c-.2 0-.5-.2-.5-.5 0-.2.2-.4.5-.4s.5.2.5.4-.2.5-.5.5zm16.9-.3c-.1 0-.2-.1-.2-.2s.1-.1.2-.1.2.1.2.1-.1.2-.2.2zm-1-6v11.8H54.2V18.3l14.8.1zm2 .3c0-.5-.4-.9-.9-.9H53c-.5 0-.9.4-.9.9v11.2c0 .5.4.9.9.9h17.1c.5 0 .9-.4.9-.9V18.7z"/></svg>