<svg data-name="Layer 1" xmlns="http://www.w3.org/2000/svg" viewBox="0 0 71 31.68"><title>4</title><path d="M14.64 30.35l-.72.84h21.32l-.67-.84H14.64m34-1.48V.5H.5L.59 29h22.62v1.39H26v-1.52h22.6m-.7-27.61v26.07H1.28V1.26z"/><path d="M1.28 27.33V1.26H47.9v26.07zm24.69 3v-1.46H48.6V.5H.5L.59 29h22.62v1.39h11.36l.67.84H13.91l.72-.84h8.58" fill="none" stroke="#00629b" stroke-linecap="round" stroke-linejoin="round"/><path d="M53.14 24.7a.45.45 0 1 1 .45-.45.45.45 0 0 1-.45.45zM70 24.37a.15.15 0 1 1 .15-.15.15.15 0 0 1-.15.15zm-1-6v11.76H54.17V18.32zm2 .28a.87.87 0 0 0-.87-.87H53a.87.87 0 0 0-.88.86v11.21a.87.87 0 0 0 .88.85h17.13a.87.87 0 0 0 .87-.87z"/></svg>