<svg xmlns="http://www.w3.org/2000/svg" width="41.1" height="50" viewBox="0 0 41.1 50" overflow="scroll"><style>.st0{fill:#fff}</style><path class="st0" d="M10.6 15.9s2 5.3 3.3 7.3c.8 1.2 2 3.3 6.6 3.3s5.8-2.1 6.6-3.3c1.3-2 3.3-7.3 3.3-7.3.7 0 1.3-.6 1.3-1.3V12c0-.7-.6-1.3-1.3-1.3v-2C30.5 4 27.9 0 20.6 0c-7.3 0-9.9 4-9.9 8.6v2c-.7 0-1.3.6-1.3 1.3v2.6c-.1.8.5 1.4 1.2 1.4m30.5 25.2c0-1 0-2-.1-2.1-.8-7.2-6-10.9-13.2-12.2-1.2 1.3-3.2 2.6-7.3 2.6s-6.1-1.3-7.3-2.7C6.1 28 .9 31.7.1 38.9c-.1.3-.1 2.3-.1 3.4v1C5.7 47.7 12.5 50 20.5 50c7.9 0 14.9-2.4 20.5-6.7l.1-2.2z"/></svg>