<svg xmlns="http://www.w3.org/2000/svg" width="50" height="50" viewBox="0 0 50 50" overflow="scroll"><style>.st0{fill-rule:evenodd;clip-rule:evenodd;fill:#fff}</style><path class="st0" d="M43.3 42.1c.1-.1.2-.3.4-.4.3-.3.5-.6.8-.9.1-.1.2-.3.3-.4.3-.3.5-.7.7-1 .1-.1.2-.2.2-.3.3-.5.6-.9.9-1.4.1-.1.1-.2.2-.3.2-.4.4-.8.6-1.1.1-.2.2-.3.2-.5.2-.4.3-.7.5-1.1.1-.2.1-.3.2-.5.2-.4.3-.9.5-1.3 0-.1.1-.2.1-.3.2-.5.3-1.1.4-1.6 0-.2.1-.3.1-.5.1-.4.2-.8.2-1.2 0-.2.1-.4.1-.6.1-.4.1-.8.1-1.2V27c0-.6.1-1.2.1-1.8C50 11.2 38.8 0 25 0 11.2 0 0 11.2 0 25s11.2 25 25 25c3.4 0 6.6-.7 9.5-1.9 1.9-.8 3.7-1.8 5.4-3 .2-.2.4-.3.6-.5.1-.1.3-.2.4-.3.4-.3.8-.7 1.2-1.1l.2-.2c.3-.3.6-.6 1-.9zm-10 3.1c-2.6 1.1-5.4 1.6-8.3 1.6C13 46.8 3.2 37 3.2 25S13 3.2 25 3.2V25l13 17.5c-1.5 1.1-3 2-4.7 2.7z"/></svg>