<svg xmlns="http://www.w3.org/2000/svg" viewBox="0 0 726.6 571.7"><path fill="#EAEAEA" d="M726.6 571.7L367.1 212.1 7.6 571.7z"/><path fill="#143257" d="M0 546.8l212.1-212.1L0 122.6z"/><path fill="#FFF" stroke="#143257" stroke-width="7" stroke-miterlimit="10" d="M74.3 94.9h562.5v355.5H74.3z"/><path fill="#FFF" stroke="#143257" stroke-width="7" stroke-miterlimit="10" d="M99.8 120.4h508.5v304.5H99.8z"/><path fill="#0378BC" d="M120.8 138.4h466.4v267H120.8z"/><path fill="none" stroke="#143257" stroke-width="7" stroke-miterlimit="10" d="M121.2 171.3h466M159.8 288.4h279v75h-279zm315-69h79.5v144h-79.5z"/><path fill="#143257" d="M135.2 149.3h388v10h-388zm393 0h12v10h-12zm17 0h12v10h-12zm17 0h13v10h-13z"/><path fill="#FFF" d="M159.8 194h175.9v17H159.8zm-78 38.7h175.9v17H81.8z"/><path fill="#FFF" stroke="#143257" stroke-width="7" stroke-miterlimit="10" d="M398.2 493.3h-91l7-26h76zm-267.7 15h444.4v29H130.5z"/><path d="M580.2 0v47.3m61.4 14h-47.4M609.4 33L590 52m52.1 9l-47.4-.1m-14.1 61.3l.1-47.4M609 90.1l-19-19.5m-8.9 52.1l.1-47.4m-61.3-14.1l47.3.1M552 89.6l19.4-19m-52-8.9l47.3.1M580.9.5l-.1 47.3m-28.3-15.2L571.4 52M657 120.4h18.9m-29.9 14l12.9 13.9m-11.1-40.7l11.3-15.2" fill="none" stroke="#143257" stroke-width="7" stroke-miterlimit="10"/></svg>