<svg xmlns="http://www.w3.org/2000/svg" viewBox="0 0 726.6 526"><path fill="#EAEAEA" d="M726.6 526L367.1 166.5 7.6 526z"/><path fill="#143257" d="M0 501.1L212.1 289 0 76.9z"/><circle fill="#0378BC" cx="107.9" cy="294.8" r="41.6"/><circle fill="#FFF" stroke="#143257" stroke-width="7" stroke-miterlimit="10" cx="177.9" cy="121.2" r="20.6"/><circle fill="#0378BC" cx="446.6" cy="199.9" r="41.6"/><circle fill="#0378BC" cx="608.1" cy="98.2" r="26.2"/><circle fill="#0378BC" cx="260.9" cy="182.7" r="26.2"/><path fill="none" stroke="#143257" stroke-width="7" stroke-miterlimit="10" d="M144.1 267.5l74.4-61.3m84.8-24.9l94.7 17.6m90.2-20l79.9-53.7M119.5 230.5l74.3-61.2m-2.2 21.8l2.2-21.8-25 1.3M469.7 138.3l78.6-55.8m-3.8 21.7l3.8-21.7-25-.4"/><path fill="#0378BC" d="M66.3 438h590.2v30H66.3z"/><path fill="#FFF" stroke="#143257" stroke-width="7" stroke-miterlimit="10" d="M242.8 243.7h55V412h-55zm-85.4 57.8h55v110.6h-55zm-85 55.6h55v55h-55zm255.9-136.4h55v191.4h-55zM509 190.9h55v221.2h-55zm-87.9 71.2h55V412h-55zm177.4-105.6h55v255.6h-55z"/><circle fill="#FFF" cx="260.5" cy="61.6" r="56.3"/><g fill="none" stroke="#143257" stroke-width="7" stroke-miterlimit="10"><circle cx="260.5" cy="59.8" r="56.3"/><path d="M313.9 77.5l-53.4-15.7-17.4-55.6M261 61.9l38.8-39.4"/></g></svg>