<svg xmlns="http://www.w3.org/2000/svg" viewBox="0 0 728.7 637.3"><path fill="#EAEAEA" d="M726.6 637.3L367.1 277.8 7.6 637.3z"/><path fill="#143257" d="M0 612.4l212.1-212.1L0 188.2z"/><path fill="#FFF" stroke="#143257" stroke-width="7" stroke-miterlimit="10" d="M419 501c22.6 0 25.8 8.3 25.8 18.4 0 10.2-3.2 18.4-25.8 18.4m0 0c22.6 0 25.8 8.3 25.8 18.4 0 10.2-3.2 18.4-25.8 18.4"/><path fill="#FFF" stroke="#143257" stroke-width="7" stroke-miterlimit="10" d="M419 574.7c22.6 0 25.8 8.3 25.8 18.4s-3.2 18.4-25.8 18.4h-11.1c-12.6.4-204.2-3.3-204.2-3.3v-89.9s41.7-5.9 55.5-11.8c13.8-5.9 22.1-39.3 27.8-47.4 5.7-8.1 41.3-23.1 41.3-23.1l.3 28s69-.6 79.2-.3l11.1.3c22.6 0 25.8 8.3 25.8 18.4 0 10.2-3.2 18.4-25.8 18.4M304.6 296.9h97.5v70.4h-97.5zm-28 17h28v36.5h-28z"/><path fill="#FFF" stroke="#143257" stroke-width="7" stroke-miterlimit="10" d="M329.6 381.4h55v81.2h-55z"/><path fill="none" stroke="#143257" stroke-width="7" stroke-miterlimit="10" d="M685.2 312.8h43.5M668 255l36.9-23m-68.2-9l24.6-35.9m9.9 180.4l37.7 21.7m-71.6 15.3l24.1 36.2"/><path fill="#143257" d="M620 334.4c7.2-.2 12.9-9.6 12.8-21.1-.1-11.5-6-20.8-13.2-20.9l.4 42z"/><path fill="#FFF" stroke="#143257" stroke-width="7" stroke-miterlimit="10" d="M586.8 199.6h20.3v229.9h-20.3zm-173.9 97.3l-.6 70.5 18.8 4.6v-81.3z"/><path fill="#0378BC" d="M569.5 208l-121.9 77v93.4L569.3 422z"/><path fill="#FFF" stroke="#143257" stroke-width="7" stroke-miterlimit="10" d="M423.8 235.5l41.8-31c6.7 1 13.5 1.6 20.4 1.6 67.3.5 121.4-44.5 120.9-100.4S551.5 4 484.3 3.5C417 3 362.8 47.8 363.3 103.8c.3 37.7 25.4 71.4 62.3 88.3l-1.8 43.4z"/><circle fill="#143257" cx="443.6" cy="104.5" r="9.8"/><circle fill="#143257" cx="484.8" cy="105.2" r="9.8"/><circle fill="#143257" cx="527.5" cy="105.2" r="9.8"/><path fill="#143257" d="M348.6 235.4v-157h-259v157h208.3l37.7 41v-41z"/><path fill="#FFF" d="M121.7 110.9h175.9v17H121.7zm-71 41h175.9v17H50.7z"/><path fill="#FFF" stroke="#143257" stroke-width="7" stroke-miterlimit="10" d="M54.1 196.9h190.5v275H54.1z"/><path fill="#03639B" d="M83.1 232h137.5v17H83.1zm0 45.1h66.3v17H83.1z"/></svg>