<svg xmlns="http://www.w3.org/2000/svg" width="50" height="40.1" viewBox="0 0 50 40.1" overflow="scroll"><style>.st0{fill:#fff}</style><path class="st0" d="M50 4.7c-1.8.8-3.8 1.3-5.9 1.6C46.2 5 47.8 3.1 48.6.7c-2 1.2-4.2 2-6.5 2.5-1.9-2-4.5-3.2-7.5-3.2C29 0 24.4 4.5 24.4 10.1c0 .8.1 1.6.3 2.3C16.1 12 8.5 8 3.5 1.9c-.9 1.4-1.4 3.2-1.4 5 0 3.5 1.8 6.6 4.6 8.4-1.7 0-3.3-.4-4.7-1.2v.1c0 4.9 3.5 9 8.2 9.9-.9.2-1.8.4-2.7.4-.7 0-1.3-.1-1.9-.2 1.3 4 5.1 6.9 9.6 7-3.5 2.7-7.9 4.3-12.7 4.3-.8 0-1.6 0-2.4-.1C4.6 38.4 10 40 15.8 40 34.7 40 45 24.6 45 11.2V9.9c1.9-1.3 3.6-3.1 5-5.2z"/></svg>