<svg xmlns="http://www.w3.org/2000/svg" viewBox="0 0 22.9 22"><path fill="#0D98D5" d="M18.7 10.5H4.2c-2.3 0-4.2 1.8-4.2 4.1v3.3C0 20.2 1.9 22 4.2 22h14.5c2.3 0 4.2-1.8 4.2-4.1v-3.3c0-2.3-1.9-4.1-4.2-4.1zM7.2 13H5.9v6.6H4.6V13H3.2v-1.1h4V13zm3.8 6.6H9.9V19c-.2.2-.4.4-.7.5-.2.1-.5.2-.7.2-.3 0-.5-.1-.6-.3-.1-.2-.2-.4-.2-.8V14h1.2v4.4c0 .1 0 .2.1.3 0 .1.1.1.2.1s.2 0 .3-.1c.1-.1.3-.2.4-.3v-4.3H11v5.5zm4-.2c-.2.2-.4.3-.8.3-.2 0-.4 0-.6-.1-.2-.1-.3-.2-.5-.4v.4h-1.2v-7.7h1.2v2.5c.2-.2.3-.3.5-.4.2-.1.4-.1.5-.1.4 0 .6.1.8.4.2.2.3.6.3 1.1v3.2c0 .3-.1.6-.2.8zm4.2-2.5H17V18c0 .3 0 .5.1.6.1.1.2.2.4.2s.3 0 .4-.1c.1-.1.1-.3.1-.6v-.3h1.2v.2c0 .6-.1 1-.4 1.3-.3.3-.7.4-1.3.4-.5 0-.9-.2-1.2-.5-.3-.2-.5-.6-.5-1.2v-2.6c0-.5.2-.9.5-1.2.3-.3.7-.5 1.3-.5.5 0 .9.1 1.2.4.3.3.4.7.4 1.2v1.6zm-1.6-2.1c-.2 0-.3.1-.4.2-.1.1-.1.3-.1.5v.5h1v-.6c0-.2 0-.4-.1-.5-.1 0-.3-.1-.4-.1zm-4 0c-.1 0-.2 0-.2.1-.1 0-.2.1-.2.2v3.5c.1.1.2.2.3.2.1 0 .2.1.3.1.1 0 .2 0 .3-.1.1-.1.1-.2.1-.4v-2.9c0-.2 0-.3-.1-.4-.3-.3-.4-.3-.5-.3zM6.1 8.5h1.5V5l1.7-5H7.8l-.9 3.4h-.1L5.8 0H4.3L6 5.1v3.4zm5.1.2c.6 0 1.1-.2 1.4-.5.3-.3.5-.7.5-1.3V3.7c0-.5-.2-.9-.5-1.2-.3-.3-.8-.5-1.3-.5-.6 0-1.1.1-1.4.4-.4.4-.5.8-.5 1.3V7c0 .5.2 1 .5 1.3.3.2.8.4 1.3.4zm-.5-5.1c0-.1.1-.2.1-.3.1-.1.2-.1.4-.1s.3 0 .4.1c.1.1.2.2.2.3V7c0 .2-.1.3-.2.4-.1.1-.2.1-.4.1s-.3 0-.4-.1c-.1-.1-.1-.2-.1-.4V3.6zm4.4 5c.2 0 .5-.1.8-.2.3-.1.5-.3.8-.6v.7H18V2.2h-1.3V7c-.1.1-.3.2-.4.3-.1.1-.3.1-.4.1-.1 0-.2 0-.3-.1-.1-.1-.1-.2-.1-.3V2.2h-1.3v5.2c0 .4.1.7.2.8.2.3.4.4.7.4z"/></svg>