<svg xmlns="http://www.w3.org/2000/svg" viewBox="0 0 288 82.4">
	<path class="text-top" fill="#003057"
	      d="M5.3 44c3 2.6 7.5 3.8 13.5 3.8 5.8 0 10.3-1.2 13.5-3.7C35.4 41.4 37 37.7 37 33c0-2.2-.4-4.2-1.5-6.1-.9-1.7-2.5-3.3-4.4-4.2-1.2-.6-2-.9-3.5-1.3-1.6-.5-9.7-2.7-10.5-2.9-4.5-1.1-7.3-2.6-7.4-5.2.2-5.1 5-5.5 7.7-5.5s4.9.6 6.5 1.7c2.8 2.2 2.5 5 2.5 5h9c-.2-4.4-1.8-8-4.8-10.7-2.9-2.6-7-3.8-12.4-3.8C12.5 0 8.1 1.2 5.1 3.6 2.2 6 .7 9.4.7 13.7c0 5.5 2.6 8.8 5 10.3 1.4.9 4.7 2.2 9 3l3.6.8c6.2 1.5 9.7 3.4 9.6 6.5-.1 1.8-.7 3.3-2.1 4.2-1.3.9-3.5 1.5-6.2 1.5-3.1 0-5.5-.6-7.3-1.8-1.7-1.1-2.7-2.9-3-5.5H0c.3 4.9 2 8.7 5.3 11.3M63 29.7c0-3.5-.6-10.7-7.7-10.7-6.7 0-7.4 7.1-7.4 10.7 0 9.2 5.2 10.3 7.7 10.3C62 40 63 33.2 63 29.7m-15.1 26c0 2.4-1.8 4.5-4.5 4.5h-4.5v-33c.5-8.8 3.7-15.8 17.1-16.3 5.8.1 10 2.4 12.4 5.3 2.7 3.5 3.8 7.7 3.8 13.1 0 5.6-1.3 10.1-4 13.5-2.7 3.4-6.1 5-10.2 5-6.2 0-9.3-2.6-10.1-3.1v11M90.7 39.9c-2.3-.1-6.6-.6-7-8.2h22.9V29c-.2-5.7-1.5-10-4.2-13.2-2.9-3.2-7-4.8-12.3-4.8-5 0-8.9 1.6-11.7 4.9-2.7 3.2-4.1 7.6-4.1 13.2 0 5.9 1.4 10.4 4.2 13.6 2.8 3.3 6.7 4.9 11.7 4.9 4.1 0 7.6-1 10.3-3 2.7-1.9 4.6-4.8 5.6-8.5h-7.9c-1.3 3.3-4.2 4-7.5 3.8m-.4-21.2c5.7-.1 6.6 4.8 6.7 7.1H83.6s-.1-7 6.7-7.1M131.8 36.1h8.7s-2.4 11.5-15.5 11.5-16.3-10.5-16.3-17.4c0-6.9 1.2-18.7 15.8-19.1 13.5-.2 15.7 11.5 15.7 11.5H131s-.9-4-6.4-3.8c-5.5.1-6.9 5.3-6.9 10.2 0 4.9 1.2 11 7.3 11 5.8.1 6.3-3.1 6.8-3.9M151.7 21.2h5.4v-9.3h-5.4V6c0-1.6-.9-4.5-4.4-4.5h-4.8v38.8c0 4 1.6 6.5 5 6.5h4.1l.1-25.6zM166.8 46.8v-18c0-2.6.6-4.6 1.8-5.8 1.2-1.2 3.1-1.8 5.7-1.8h3v-9.4s-4.8-.1-8.2.9c-2.2.7-4.2 1.6-5.9 2.9-1.8 1.4-3.1 3.3-4.2 5.6-1 2.3-1.5 5.2-1.5 8.6v17h9.3zM179.9 11.8h9.2v22.4s-.3 6.1 6.1 6.1c6 0 6.2-5.4 6.2-5.8V16.1s.3-4.4 4.3-4.4h4.8v20.8c-.1 1.1 1.2 14.9-15.3 14.9-16.4 0-15.2-14-15.3-14.8V11.8zM243.9 47h-9.2V24.4c0-2.6-1.1-6.1-6.2-6.1s-6.1 4-6.1 6.1V47h-9.3V26.3c0-6 1.8-9.7 4.7-12.1 2.9-2.4 6.6-3.1 10.4-3.3 2 0 4 .2 6 .7 1.9.4 3.7 1.3 5.3 2.7 1.3-1.1 2.9-2 4.7-2.5 1.8-.5 3.7-.9 5.6-.9 11.3-.1 15.9 5.1 16.2 6.8V47h-5.2c-1.3 0-4.5-.9-4.5-4.5v-18c0-2.6-.9-6.1-6.2-6.1s-6.2 4-6.2 6.1V47z"/>
	<path class="arrow" fill="#0099D8" d="M268.7 17.6v29.3L288 32.3"/>
	<g class="text-bottom" fill="#003057">
		<path d="M172.3 59.3c.8.4 1.6.9 2.2 1.6.5.6.9 1.2 1.2 1.9.3.7.4 1.5.4 2.4 0 1.1-.3 2.2-.8 3.2-.6 1.1-1.5 1.8-2.7 2.2 1.1.4 1.8 1 2.3 1.8.4.8.7 2 .7 3.6v1.5c0 1.1 0 1.8.1 2.1.1.6.4 1 .9 1.3v.6h-5.3c-.1-.5-.2-.9-.3-1.2-.1-.6-.2-1.3-.2-2v-2.1c0-1.5-.3-2.4-.8-2.9s-1.4-.7-2.7-.7h-4.7v9h-4.7v-23h11c1.3.1 2.5.3 3.4.7zm-10 3.4v6.2h5.2c1 0 1.8-.1 2.3-.4.9-.4 1.4-1.3 1.4-2.6 0-1.4-.4-2.3-1.3-2.8-.5-.3-1.2-.4-2.2-.4h-5.4zM197.5 62.8h-12.2v4.9h11.2v4h-11.2v5.9H198v4.1h-17.5v-23h16.9v4.1zM208.8 58.7h5.4l8.1 23h-5.2l-1.5-4.7h-8.5l-1.6 4.7h-5l8.3-23zm-.3 14.3h5.9l-2.9-9.1-3 9.1zM226.7 61.1c1.9-1.9 4.2-2.8 7.1-2.8 3.8 0 6.6 1.3 8.4 3.8 1 1.4 1.5 2.9 1.6 4.3H239c-.3-1.1-.7-1.9-1.2-2.5-.9-1-2.1-1.5-3.8-1.5-1.7 0-3.1.7-4.1 2.1-1 1.4-1.5 3.4-1.5 6s.5 4.5 1.6 5.8c1 1.3 2.4 1.9 4 1.9 1.7 0 2.9-.6 3.8-1.7.5-.6.9-1.5 1.2-2.7h4.8c-.4 2.5-1.5 4.6-3.2 6.1-1.7 1.6-3.9 2.4-6.5 2.4-3.3 0-5.9-1.1-7.7-3.2-1.9-2.1-2.8-5.1-2.8-8.8-.1-3.9 1-7 3.1-9.2zM247.6 81.7v-23h4.8v8.8h9v-8.8h4.8v23h-4.8V71.4h-9v10.3h-4.8z"/>
	</g>
</svg>