<?xml version="1.0" encoding="utf-8"?>
<!-- Generator: Adobe Illustrator 20.0.0, SVG Export Plug-In . SVG Version: 6.00 Build 0)  -->
<svg version="1.1" id="Layer_1" xmlns="http://www.w3.org/2000/svg" xmlns:xlink="http://www.w3.org/1999/xlink" x="0px" y="0px"
	 viewBox="0 0 59.3 31.7" style="enable-background:new 0 0 59.3 31.7;" xml:space="preserve">
<style type="text/css">
	.st0{fill:#00629B;}
</style>
<title>1</title>
<path class="st0" d="M58.8,0H10.7c-0.1,0-0.3,0.1-0.4,0.1s-0.1,0.2-0.1,0.4L10.3,29c0,0.3,0.2,0.5,0.5,0.5h22.1v0.4h-8.1
	c-0.1,0-0.3,0.1-0.4,0.2l-0.7,0.8c-0.1,0.1-0.2,0.4-0.1,0.5s0.3,0.3,0.5,0.3h21.3c0.2,0,0.4-0.1,0.5-0.3c0.1-0.2,0.1-0.4-0.1-0.5
	L45.1,30c-0.1-0.1-0.2-0.2-0.4-0.2h-8.1v-0.5h22.1c0.3,0,0.5-0.2,0.5-0.5V0.5C59.3,0.2,59.1,0,58.8,0z M12,26.8v-25h45.6v25.1H12
	V26.8z"/>
<path class="st0" d="M5.9,16.3c-0.6-0.1-2-0.1-2-0.1H3.8c0,0-1.4,0-2,0.1c-1,0.1-1.8,0.1-1.8,2.1v11.4c0,0.9,0.8,1.7,1.8,1.6h0.1
	h3.8c0.9,0.1,1.8-0.6,1.9-1.5v-0.1V18.4C7.7,16.4,6.9,16.5,5.9,16.3z M3.1,16.7h1.4c0.1,0,0.1,0,0.1,0.1s0,0.1-0.1,0.1H3.1
	C3,16.9,3,16.8,3.1,16.7C3,16.7,3,16.7,3.1,16.7z M4.7,30.8c0,0.1-0.1,0.1-0.1,0.1H3.1C3,30.9,3,30.8,3,30.8v-0.2
	c0-0.1,0.1-0.1,0.1-0.1h1.4c0.1,0,0.1,0.1,0.1,0.1L4.7,30.8L4.7,30.8z M7.1,29.4H0.5V17.9h6.6V29.4z"/>
</svg>
