<svg xmlns="http://www.w3.org/2000/svg" viewBox="0 0 32 32">
	<path fill-rule="evenodd" d="M30 32H2c-1.105 0-2-.895-2-2V2C0 .895.895 0 2 0h28c1.105 0 2 .895 2 2v28c0 1.105-.895 2-2 2zM25.447 8.309c-.792.491-1.671.848-2.605 1.041-.749-.834-1.815-1.355-2.995-1.355-2.267 0-4.104 1.921-4.104 4.291 0 .336.037.664.107.978-3.411-.179-6.434-1.888-8.458-4.484-.353.634-.556 1.371-.556 2.158 0 1.488.725 2.802 1.826 3.572-.673-.022-1.305-.215-1.859-.537v.054c0 2.08 1.414 3.814 3.292 4.208-.345.098-.707.151-1.082.151-.264 0-.521-.027-.771-.077.522 1.705 2.037 2.946 3.833 2.98-1.405 1.151-3.174 1.838-5.096 1.838-.332 0-.658-.021-.979-.06 1.816 1.217 3.972 1.928 6.29 1.928 7.547 0 11.674-6.54 11.674-12.211 0-.186-.004-.371-.012-.556.802-.605 1.498-1.36 2.048-2.221-.736.341-1.527.572-2.357.676.847-.532 1.498-1.372 1.804-2.374z"/>
</svg>
