<svg xmlns="http://www.w3.org/2000/svg" viewBox="0 0 32 32">
	<path fill-rule="evenodd" d="M29.63 0H2.362C1.058 0 0 1.034 0 2.305v27.386C0 30.965 1.058 32 2.362 32H29.63c1.305 0 2.37-1.035 2.37-2.309V2.305C32 1.034 30.935 0 29.63 0zM9.49 27.268H4.742v-15.27H9.49v15.27zM7.117 9.909c-1.522 0-2.752-1.232-2.752-2.752 0-1.518 1.23-2.751 2.752-2.751 1.517 0 2.75 1.233 2.75 2.751 0 1.52-1.233 2.752-2.75 2.752zm20.15 17.359h-4.741v-7.425c0-1.772-.035-4.05-2.467-4.05-2.47 0-2.847 1.929-2.847 3.921v7.554h-4.745v-15.27h4.554v2.085h.064c.634-1.2 2.183-2.466 4.492-2.466 4.802 0 5.69 3.162 5.69 7.275v8.376z"/>
</svg>
