<?xml version="1.0" encoding="utf-8"?>
<!-- Generator: Adobe Illustrator 21.0.2, SVG Export Plug-In . SVG Version: 6.00 Build 0)  -->
<svg version="1.1" id="Layer_1" xmlns="http://www.w3.org/2000/svg" xmlns:xlink="http://www.w3.org/1999/xlink" x="0px" y="0px"
	 viewBox="0 0 50 50" enable-background="new 0 0 50 50" xml:space="preserve">
<path d="M49.6,19.5L25.3,8.4c-0.2-0.1-0.4-0.1-0.5,0L0.4,19.5C0.1,19.6,0,19.8,0,20c0,0.3,0.1,0.4,0.4,0.6l6.7,3.1v12.4
	c0,0.1,0.1,0.3,0.1,0.3c0.1,0.2,2.8,4.2,17.7,4.2h0.3c4.1,0,7.6-0.3,10.5-0.9l-0.3,1.7c0,0.2,0,0.4,0.1,0.5c0.1,0.1,0.3,0.2,0.5,0.2
	H39c0.2,0,0.4-0.1,0.5-0.2c0.1-0.1,0.2-0.3,0.1-0.5l-0.4-2.7c2.8-1,3.6-2.2,3.7-2.3s0.1-0.2,0.1-0.3V23.6l6.6-3
	c0.3-0.1,0.4-0.3,0.4-0.6S49.9,19.6,49.6,19.5z M25.3,39.3h-0.3c-12.5,0-16-2.9-16.5-3.5V24.3l16.3,7.5c0.1,0.1,0.2,0.1,0.3,0.1
	s0.2,0,0.3-0.1l11.5-5.3v5.3c-1.2,0.3-2.1,1.3-2.1,2.6c0,1,0.6,1.9,1.3,2.3l-0.2,1.7C33.1,39,29.5,39.3,25.3,39.3z M37.5,35.7
	c-0.8,0-1.4-0.6-1.4-1.4s0.6-1.4,1.4-1.4s1.4,0.6,1.4,1.4S38.3,35.7,37.5,35.7z M36.9,40.8l0.5-3.8h0.1c0.1,0,0.2,0,0.3,0l0.1,1.2
	c0,0.1,0,0.2,0,0.3c0,0,0,0,0,0.1l0.3,2.4H36.9z M41.8,35.8c-0.3,0.3-1,0.9-2.6,1.5L39,36.5c0.7-0.5,1.2-1.3,1.2-2.2
	c0-1.3-0.9-2.3-2.1-2.6v-5.9l3.7-1.7L41.8,35.8z M37.6,24.7L25.8,19c-0.3-0.1-0.7,0-0.8,0.3s0,0.7,0.3,0.8l10.8,5.2l-11.1,5.1
	L2.2,20L25,9.7L47.8,20L37.6,24.7z"/>
</svg>
