<svg id="Layer_1" xmlns="http://www.w3.org/2000/svg" viewBox="0 0 605.1 540.8">
  <path fill="#FFF" stroke="#143257" stroke-width="7" stroke-miterlimit="10" d="M3.5 94.9H566v355.5H3.5z"/>
  <path fill="#FFF" stroke="#143257" stroke-width="7" stroke-miterlimit="10" d="M29 120.4h508.5v304.5H29z"/>
  <path fill="#0378BC" d="M50 138.4h466.4v267H50z"/>
  <path fill="none" stroke="#143257" stroke-width="7" stroke-miterlimit="10" d="M50.4 171.3h466M89 288.4h279v75H89zM404 219.4h79.5v144H404z"/>
  <path fill="#143257" d="M64.4 149.3h388v10h-388zM457.4 149.3h12v10h-12zM474.4 149.3h12v10h-12zM491.4 149.3h13v10h-13z"/>
  <path fill="#FFF" d="M89 194h175.9v17H89zM11 232.7h175.9v17H11z"/>
  <path fill="#FFF" stroke="#143257" stroke-width="7" stroke-miterlimit="10" d="M327.4 493.3h-91l7-26h76zM59.7 508.3h444.4v29H59.7z"/>
  <g fill="none" stroke="#143257" stroke-width="7" stroke-miterlimit="10">
    <path d="M509.4 0v47.3M570.7 61.3h-47.3M538.6 33l-19.4 19M571.2 61l-47.3-.1M509.8 122.2l.1-47.4M538.2 90.1l-19-19.5M510.3 122.7l.1-47.4M449.1 61.2l47.3.1M481.2 89.6l19.4-19M448.6 61.7l47.3.1M510 .5l-.1 47.3M481.7 32.6L500.6 52"/>
  </g>
  <path fill="none" stroke="#143257" stroke-width="7" stroke-miterlimit="10" d="M586.2 120.4h18.9M575.2 134.4l12.8 13.9M577 107.6l11.3-15.2"/>
</svg>
