<svg id="Layer_1" xmlns="http://www.w3.org/2000/svg" viewBox="0 0 590.7 468">
  <circle fill="#0378BC" cx="41.6" cy="294.8" r="41.6"/>
  <circle fill="#FFF" stroke="#143257" stroke-width="7" stroke-miterlimit="10" cx="111.6" cy="121.2" r="20.6"/>
  <circle fill="#0378BC" cx="380.3" cy="199.9" r="41.6"/>
  <circle fill="#0378BC" cx="541.8" cy="98.2" r="26.2"/>
  <circle fill="#0378BC" cx="194.5" cy="182.7" r="26.2"/>
  <path fill="none" stroke="#143257" stroke-width="7" stroke-miterlimit="10" d="M77.8 267.5l74.3-61.3M236.9 181.3l94.7 17.6M421.9 178.9l79.9-53.7"/>
  <g fill="none" stroke="#143257" stroke-width="7" stroke-miterlimit="10">
    <path d="M53.1 230.5l74.3-61.2M125.3 191.1l2.1-21.8-24.9 1.3"/>
  </g>
  <g fill="none" stroke="#143257" stroke-width="7" stroke-miterlimit="10">
    <path d="M403.4 138.3l78.5-55.8M478.2 104.2l3.7-21.7-25-.4"/>
  </g>
  <path fill="#0378BC" d="M0 438h590.2v30H0z"/>
  <path fill="#FFF" stroke="#143257" stroke-width="7" stroke-miterlimit="10" d="M176.5 243.7h55V412h-55zM91 301.5h55v110.6H91zM6.1 357.1h55v55h-55zM262 220.7h55v191.4h-55zM442.7 190.9h55v221.2h-55zM354.7 262.1h55V412h-55zM532.2 156.5h55v255.6h-55z"/>
  <circle fill="#FFF" cx="194.1" cy="61.6" r="56.3"/>
  <g fill="none" stroke="#143257" stroke-width="7" stroke-miterlimit="10">
    <circle cx="194.1" cy="59.8" r="56.3"/>
    <path d="M247.6 77.5l-53.5-15.7-17.4-55.6M194.6 61.9l38.9-39.4"/>
  </g>
</svg>
