<svg xmlns="http://www.w3.org/2000/svg" viewBox="0 0 645 529.1" overflow="scroll">
  <g id="Layer_21_copy_2" stroke="#003057" stroke-width="7" stroke-miterlimit="10">
    <path fill="#FFF" d="M155.3 143.9h222v358.8h-222z"/>
    <path fill="none" d="M154.1 190h222M154.1 455h222"/>
  </g>
  <g fill="#FFF" stroke="#003057" stroke-width="7" stroke-miterlimit="10" id="Layer_22_copy_2">
    <path d="M319.3 328.2c12.9 0 14.8 4.7 14.8 10.5s-1.8 10.5-14.8 10.5M319.3 349.3c12.9 0 14.8 4.7 14.8 10.5s-1.8 10.5-14.8 10.5"/>
    <path d="M319.3 370.4c12.9 0 14.8 4.7 14.8 10.5s-1.8 10.5-14.8 10.5H313c-7.2.2-116.9-1.9-116.9-1.9v-51.4s23.8-3.4 31.7-6.8c7.9-3.4 15.9-27.1 15.9-27.1 2.5-8.7 5.9-49.4 5.9-49.4s4.9-5.4 12.5-2.3c7.7 3.1 5.5 54.5 5.5 54.5s39.5-.3 45.3-.2l6.4.2c12.9 0 14.8 4.7 14.8 10.5s-1.8 10.5-14.8 10.5"/>
  </g>
  <g id="Layer_23_copy_3_1_">
    <path fill="#0077BC" d="M280.1 192V0h317v192H342.3l-46.2 50v-50z"/>
    <path fill="#FFF" d="M318.7 37.6h175.9v17H318.7zM318.7 80.5h106.1v17H318.7z"/>
  </g>
  <g id="Layer_23_copy_3">
    <path fill="#FFF" stroke="#003057" stroke-width="7" stroke-miterlimit="10" d="M437.6 249.5v-106h176v106h-141l-26 27.5v-27.5z"/>
    <path fill="#0077BC" d="M468 167h119.4v16.2H468zM525.6 198.7H645v16.2H525.6z"/>
  </g>
  <g stroke="#003057" stroke-width="7" stroke-miterlimit="10" id="Layer_24_copy_2">
    <path fill="#FFF" d="M209.1 196.5c0 32.6-15.1 61.6-38.8 80.4-17.6 14-39.8 22.4-64 22.4s-46.4-8.4-64-22.4C18.7 258.1 3.5 229 3.5 196.5c0-56.8 46-102.8 102.8-102.8s102.8 46 102.8 102.8z"/>
    <circle fill="none" cx="106.3" cy="186.6" r="35.6"/>
    <path fill="none" d="M121.5 218.8c26.8 6.5 47 29.8 48.8 58.1-17.6 14-39.8 22.4-64 22.4s-46.4-8.4-64-22.4c1.8-28.3 22-51.6 48.8-58.1"/>
  </g>
  <g id="Layer_25_copy_2">
    <path fill="none" stroke="#003057" stroke-width="7" stroke-miterlimit="10" d="M372.5 376.2c13.4-25.1 38.3-45.2 68.3-49.4M376.8 476.3c17.8 27 48.2 43 81.4 43 3.5 0 7-.2 10.4-.5M534.8 362.2c12.9 16.5 20.6 37.2 20.6 59.8 0 14.1-2.1 28.7-8.6 41"/>
    <circle fill="#0077BC" cx="518.5" cy="487.5" r="41.6"/>
    <circle fill="#003057" cx="370.2" cy="437.8" r="41.6"/>
    <circle fill="#00629B" cx="476.9" cy="334.6" r="41.6"/>
  </g>
</svg>
