<svg id="Layer_1" xmlns="http://www.w3.org/2000/svg" viewBox="0 0 678.1 615.1">
  <path fill="#FFF" stroke="#143257" stroke-width="7" stroke-miterlimit="10" d="M368.4 501c22.6 0 25.8 8.3 25.8 18.4 0 10.2-3.2 18.4-25.8 18.4M368.4 537.8c22.6 0 25.8 8.3 25.8 18.4 0 10.2-3.2 18.4-25.8 18.4"/>
  <path fill="#FFF" stroke="#143257" stroke-width="7" stroke-miterlimit="10" d="M368.4 574.7c22.6 0 25.8 8.3 25.8 18.4s-3.2 18.4-25.8 18.4h-11.1c-12.6.4-204.2-3.3-204.2-3.3v-89.9s41.7-5.9 55.5-11.8c13.8-5.9 22.1-39.3 27.8-47.4 5.7-8.1 41.3-23.1 41.3-23.1l.3 28s69-.6 79.2-.3l11.1.3c22.6 0 25.8 8.3 25.8 18.4 0 10.2-3.2 18.4-25.8 18.4M254 296.9h97.5v70.4H254zM226 313.9h28v36.5h-28z"/>
  <path fill="#FFF" stroke="#143257" stroke-width="7" stroke-miterlimit="10" d="M279 381.4h55v81.2h-55z"/>
  <path fill="none" stroke="#143257" stroke-width="7" stroke-miterlimit="10" d="M634.6 312.8h43.5M617.3 255l37-23M586 223l24.6-35.9M620.6 367.5l37.7 21.7M586.7 404.5l24.1 36.2"/>
  <path fill="#143257" d="M569.4 334.4c7.2-.2 12.9-9.6 12.8-21.1-.1-11.5-6-20.8-13.2-20.9l.4 42z"/>
  <path fill="#FFF" stroke="#143257" stroke-width="7" stroke-miterlimit="10" d="M536.2 199.6h20.3v229.9h-20.3zM362.3 296.9l-.6 70.5 18.8 4.6v-81.3z"/>
  <path fill="#0378BC" d="M518.8 208L397 285v93.4L518.7 422z"/>
  <path fill="#FFF" stroke="#143257" stroke-width="7" stroke-miterlimit="10" d="M373.1 235.5l41.8-31c6.7 1 13.5 1.6 20.4 1.6 67.3.5 121.4-44.5 120.9-100.4S500.9 4 433.6 3.5 312.2 47.8 312.7 103.8c.3 37.7 25.4 71.4 62.3 88.3l-1.9 43.4z"/>
  <circle fill="#143257" cx="392.9" cy="104.5" r="9.8"/>
  <circle fill="#143257" cx="434.2" cy="105.2" r="9.8"/>
  <circle fill="#143257" cx="476.8" cy="105.2" r="9.8"/>
  <path fill="#143257" d="M298 235.4v-157H39v157h208.3l37.7 41v-41z"/>
  <path fill="#FFF" d="M71.1 110.9H247v17H71.1zM0 151.9h175.9v17H0z"/>
  <path fill="#FFF" stroke="#143257" stroke-width="7" stroke-miterlimit="10" d="M3.5 196.9H194v275H3.5z"/>
  <path fill="#03639B" d="M32.5 232H170v17H32.5zM32.5 277.1h66.3v17H32.5z"/>
</svg>
