<?xml version="1.0" encoding="utf-8"?>
<!-- Generator: Adobe Illustrator 21.0.2, SVG Export Plug-In . SVG Version: 6.00 Build 0)  -->
<svg version="1.1" id="Layer_1" xmlns="http://www.w3.org/2000/svg" xmlns:xlink="http://www.w3.org/1999/xlink" x="0px" y="0px"
	 viewBox="0 0 50 50" enable-background="new 0 0 50 50" xml:space="preserve">
<g transform="translate(0,-952.36218)">
	<path d="M13.2,956.4c-5.8,0-13.2,5.1-13.2,15.3c0,5.7,3.6,11,8.3,15.6s10.7,8.8,16,11.9c0.4,0.3,1,0.3,1.4,0
		c5.3-3.2,11.2-7.3,16-11.9s8.3-10,8.3-15.6c0-10.2-7.4-15.3-13.2-15.3c-5.7,0-9.4,2.9-11.8,6C22.6,959.2,18.9,956.4,13.2,956.4z
		 M12.7,958.3c5.9,0,9.1,3.2,11.1,6.5c0.4,0.7,1.3,0.9,2,0.5c0.2-0.1,0.4-0.3,0.5-0.5c2-3.4,5.2-6.5,11.1-6.5
		c4.3,0,10.9,3.8,10.9,13c0,4.7-3.1,9.6-7.8,14.3C35.9,990,30.2,994,25,997.2c-5.2-3.2-10.9-7.1-15.4-11.5C5,981,1.8,976,1.8,971.4
		C1.8,962.2,8.4,958.3,12.7,958.3z"/>
</g>
</svg>
