<svg xmlns="http://www.w3.org/2000/svg" width="47.1" height="50" viewBox="0 0 47.1 50" overflow="scroll"><style>.st0{fill:#FFFFFF;}</style><path class="st0" d="M44.4 18.5c-2.4-3.2-5.7-3.9-7.7-3.9-2.6 0-4.7.6-6.5 1.3-1.2.5-2.2 1-2.9 1.5v-2.8H16.4V50h10.9V28.3c.1-.5 1.2-3.8 5.6-3.8 1.3 0 2.2.4 2.6 1 .5.6.6 1.6.6 2.7V50H47V28.5c.1-4.7-1-7.9-2.6-10zM5.5 10.3c1.4 0 2.7-.6 3.7-1.5.9-.9 1.5-2.2 1.5-3.6s-.6-2.7-1.5-3.6C8.2.6 6.9 0 5.5 0 4.1 0 2.8.6 1.8 1.5.9 2.4.3 3.7.3 5.1s.6 2.7 1.5 3.6c1 1 2.3 1.6 3.7 1.6zM0 50h11V14.6H0V50z"/></svg>