<svg xmlns="http://www.w3.org/2000/svg" viewBox="0 0 612.8 186.5">
	<g fill="#808285" class="text-top">
		<path d="M66.1 48.3c-2.6-1.3-4.2-1.9-7.4-2.8-3.4-1.1-20.6-5.7-22.3-6.2-9.5-2.3-15.6-5.5-15.6-11.2.5-10.9 10.7-11.8 16.3-11.8 5.8 0 10.4 1.2 13.8 3.7 6 4.7 5.4 10.7 5.4 10.7h19.1c-.4-9.4-3.7-17-10.1-22.8C59 2.6 50.2 0 38.8 0 26.6 0 17.3 2.5 11 7.6 4.6 12.8 1.4 20 1.4 29.2 1.4 41 7 47.9 12.1 51.1c3.1 1.8 10.1 4.7 19.1 6.5l7.6 1.7c13.2 3.2 20.7 7.3 20.5 13.8-.1 3.9-1.5 6.9-4.5 9-2.7 1.9-7.4 3.1-13.2 3.1-6.6 0-11.7-1.3-15.4-3.9-3.6-2.2-5.7-6.2-6.5-11.8H0c.6 10.5 4.3 18.6 11.2 24 6.4 5.4 15.9 8.1 28.6 8.1 12.4 0 21.9-2.6 28.6-7.9 6.7-5.6 10.1-13.5 10.1-23.6 0-4.7-.9-9-3.1-12.9-1.8-3.5-5.2-6.9-9.3-8.9zM119 23.1c-28.4 1-35.2 15.9-36.3 34.6V128h9.6c5.7 0 9.6-4.6 9.6-9.6V95.2c1.7 1 8.2 6.6 21.5 6.6 8.8 0 16.1-3.6 21.7-10.7 5.6-7.3 8.5-16.9 8.5-28.8 0-11.5-2.4-20.6-8.1-27.9-5.3-6.2-14.2-11.1-26.5-11.3zm-.8 62c-5.3 0-16.4-2.5-16.4-22 0-7.7 1.5-22.9 15.8-22.9 15 0 16.4 15.5 16.4 22.9 0 7.6-2.1 22-15.8 22zM191.7 23.4c-10.7 0-19 3.5-25 10.4-5.8 6.7-8.7 16.1-8.7 28.1 0 12.5 3 22.2 9 28.9 6 6.9 14.3 10.4 25 10.4 8.8 0 16.1-2.2 21.9-6.5 5.8-4.1 9.8-10.1 11.8-18h-16.9c-2.5 7.1-8.8 8.5-15.7 8.2-4.9-.2-14.1-1.2-15-17.4h48.7v-5.8c-.3-12.2-3.3-21.3-9-28.2-6.2-6.7-14.9-10.1-26.1-10.1zm-13.8 31.5s-.2-14.9 14.3-15.2c12.1-.2 13.9 10.1 14.3 15.2h-28.6zM265.9 84.9c-13 0-15.6-13.1-15.6-23.5s3.1-21.4 14.8-21.7c11.7-.3 13.6 8.1 13.6 8.1h19.7s-4.7-24.9-33.4-24.4c-31.1.9-33.7 26-33.7 40.7 0 14.7 6.9 37.1 34.8 37.1S299 76.8 299 76.8h-18.5c-1.2 1.8-2.2 8.5-14.6 8.1zM334.3 25.4h-11.5V12.7c0-3.5-1.9-9.5-9.3-9.5h-10.1v82.6c0 8.6 3.3 13.8 10.6 13.8h8.8V45.1h11.5V25.4zM359.8 26.9c-4.7 1.4-8.9 3.4-12.5 6.2-3.7 3-6.7 7-8.8 11.9-2.2 5-3.2 11.1-3.2 18.4v36.2H355V61.2c0-5.6 1.3-9.7 3.9-12.4 2.6-2.6 6.6-3.9 12.1-3.9h6.5V25c-.2 0-10.4-.3-17.7 1.9zM448 69.4V25.1h-10.2c-8.5 0-9.2 9.3-9.2 9.3v39c0 .8-.3 12.4-13.2 12.4-13.6 0-12.9-12.9-12.9-12.9V25.1h-19.7v44.5c.2 1.8-2.2 31.5 32.6 31.5 35.2.1 32.5-29.3 32.6-31.7zM566.3 37.6c-.8-3.5-10.5-14.6-34.6-14.4-4.1 0-8.1.8-12 1.8-3.9 1-7.2 2.8-10 5.2-3.4-2.8-7.2-4.7-11.3-5.6-4.1-.9-8.4-1.4-12.7-1.4-8.1.4-16 2-22.2 7.1-6.2 5.1-10 12.9-10 25.7v44h19.8V52c0-4.5 2.2-13 13-13 11 0 13.3 7.5 13.3 13v48H519V52c0-4.5 2-13 13.3-13 11.4 0 13.3 7.5 13.3 13v38.4c0 7.7 6.8 9.6 9.6 9.6h11.2c-.1-.1-.1-62.4-.1-62.4z"/>
	</g>
	<path fill="#00629B" d="M571.8 37.5v62.3l41-31.1" class="arrow" />
	<g fill="#00629B" class="text-bottom">
		<path d="M303.4 128h27.3c12.5 0 18.9 5.8 18.9 15.4 0 11-7.6 13.8-9.4 14.4v.2c3.4.5 8.5 3 8.5 12.1 0 6.6 1 12.7 3.1 15H341c-1.5-2.5-1.5-5.6-1.5-8.4 0-10.5-2.2-15.1-11.4-15.1h-14.7v23.5h-10V128zm10 26h16.4c6.3 0 9.8-3.1 9.8-9.1 0-7.3-4.7-8.7-9.9-8.7h-16.2V154zM359.9 128H401v8.6h-31.1v15h28.8v8.2h-28.8v16.7h31.7v8.6h-41.7V128zM427.6 128h10.6l22 57.1h-10.7l-5.4-15.1h-22.8l-5.4 15.1h-10.3l22-57.1zm-3.8 34.4h17.4l-8.6-24.6h-.2l-8.6 24.6zM502 146.2c-1.7-6.6-5.9-11.4-14.2-11.4-12.2 0-17.4 10.8-17.4 21.8s5.1 21.8 17.4 21.8c8.9 0 13.8-6.6 14.6-15h9.8c-.8 13.7-10.5 23.1-24.3 23.1-17.1 0-27.4-13.6-27.4-29.9s10.2-29.9 27.4-29.9c12.9.1 23 7.2 24.2 19.5H502zM520.3 128h10v22.7h26V128h10v57.1h-10v-25.8h-26v25.8h-10V128z"/>
	</g>
</svg>