<svg id="Layer_1" data-name="Layer 1" xmlns="http://www.w3.org/2000/svg" viewBox="0 0 59.24 31.68">
	<title>1</title>
	<g id="b">
		<path
			d="M24.82,30.35l-.72.84H45.42l-.67-.84H24.82m34-1.48V.5H10.68L10.77,29H33.39v1.39h2.79V28.87h22.6m-.7-27.61V27.33H11.46V1.26Z"
			transform="translate(-0.04)"/>
	</g>
	<path id="a"
	      d="M11.46,27.33V1.26H58.08V27.33Zm24.69,3V28.87H58.78V.5H10.68L10.77,29H33.39v1.39H44.75l.67.84H24.09l.72-.84h8.58"
	      transform="translate(-0.04)" fill="none" stroke="#00629b" stroke-linecap="round" stroke-linejoin="round"/>
	<path
		d="M5.91,16.32c-.57-.08-2-.08-2-.08h-.1s-1.44,0-2,.08c-1,.14-1.77.12-1.77,2.06V29.82a1.7,1.7,0,0,0,1.78,1.62h4a1.7,1.7,0,0,0,1.88-1.5s0-.08,0-.11V18.37C7.68,16.44,6.91,16.45,5.91,16.32Zm-2.83.38H4.53a.09.09,0,1,1,0,.19H3.08a.09.09,0,0,1,0-.19ZM4.7,30.76a.14.14,0,0,1-.14.14H3.13A.15.15,0,0,1,3,30.76v-.21a.14.14,0,0,1,.14-.14H4.56a.14.14,0,0,1,.14.14Zm2.38-1.38H.53V17.94H7.08Z"
		transform="translate(-0.04)"/>
</svg>