<?xml version="1.0" encoding="utf-8"?>
<!-- Generator: Adobe Illustrator 20.0.0, SVG Export Plug-In . SVG Version: 6.00 Build 0)  -->
<svg version="1.1" id="Layer_1" xmlns="http://www.w3.org/2000/svg" xmlns:xlink="http://www.w3.org/1999/xlink" x="0px" y="0px"
	 viewBox="0 0 68.7 26.2" style="enable-background:new 0 0 68.7 26.2;" xml:space="preserve">
<style type="text/css">
	.st0{fill:#00629B;}
</style>
<title>3</title>
<path class="st0" d="M5.9,10.7c-0.6-0.1-2-0.1-2-0.1H3.8c0,0-1.4,0-2,0.1c-1,0.1-1.8,0.1-1.8,2.1v11.4c0,0.9,0.8,1.7,1.8,1.6
	c0,0,0,0,0,0h4c0.9,0.1,1.8-0.6,1.9-1.5c0,0,0,0,0,0c0,0,0-0.1,0-0.1V12.8C7.6,10.8,6.9,10.9,5.9,10.7z M3,11.1h1.5
	c0.1,0,0.1,0,0.1,0.1c0,0.1,0,0.1-0.1,0.1H3C3,11.3,2.9,11.2,3,11.1C2.9,11.1,3,11.1,3,11.1z M4.7,25.2c0,0.1-0.1,0.1-0.1,0.1H3.1
	C3,25.3,3,25.2,3,25.2V25c0-0.1,0.1-0.1,0.1-0.1h1.4c0.1,0,0.1,0.1,0.1,0.1V25.2z M7,23.8H0.5V12.3H7V23.8z"/>
<path class="st0" d="M14.6,21.9h28.5c0.5,0,0.8-0.4,0.8-0.8V0.8C44,0.4,43.6,0,43.1,0H14.6c-0.5,0-0.8,0.4-0.8,0.8v20.3
	C13.8,21.5,14.2,21.9,14.6,21.9z M15.5,1.6h26.9v18.6H15.5V1.6z"/>
<path class="st0" d="M45.9,24.2H11.7c-0.6,0-1,0.4-1,1s0.4,1,1,1h34.1c0.6,0,1-0.4,1-1S46.4,24.2,45.9,24.2z"/>
<path class="st0" d="M50.8,20.1c-0.2,0-0.5-0.2-0.5-0.5c0-0.2,0.2-0.4,0.5-0.4s0.5,0.2,0.5,0.4S51,20.1,50.8,20.1L50.8,20.1z
	 M67.6,19.8c-0.1,0-0.2-0.1-0.2-0.2c0-0.1,0.1-0.1,0.2-0.1c0.1,0,0.2,0.1,0.2,0.1S67.7,19.8,67.6,19.8L67.6,19.8z M66.6,13.8v11.7
	H51.8V13.7L66.6,13.8z M68.7,14.1c0-0.5-0.4-0.9-0.9-0.9l0,0H50.6c-0.5,0-0.9,0.4-0.9,0.9c0,0,0,0,0,0l0,0v11.2
	c0,0.5,0.4,0.9,0.9,0.9h17.2c0.5,0,0.9-0.4,0.9-0.9c0,0,0,0,0,0l0,0L68.7,14.1z"/>
</svg>
