<?xml version="1.0" encoding="utf-8"?>
<!-- Generator: Adobe Illustrator 20.0.0, SVG Export Plug-In . SVG Version: 6.00 Build 0)  -->
<svg version="1.1" id="Layer_1" xmlns="http://www.w3.org/2000/svg" xmlns:xlink="http://www.w3.org/1999/xlink" x="0px" y="0px"
	 viewBox="0 0 36.2 26.2" style="enable-background:new 0 0 36.2 26.2;" xml:space="preserve">
<style type="text/css">
	.st0{fill:#00629B;}
</style>
<title>2</title>
<path class="st0" d="M3.9,21.9h28.5c0.5,0,0.8-0.4,0.8-0.8V0.8c0-0.5-0.4-0.8-0.8-0.8H3.9C3.5,0,3.1,0.4,3.1,0.8v20.3
	C3.1,21.5,3.5,21.9,3.9,21.9z M4.7,1.6h26.9v18.6H4.7V1.6z"/>
<path class="st0" d="M35.2,24.2H1c-0.6,0-1,0.4-1,1s0.4,1,1,1h34.1c0.6,0,1-0.4,1-1S35.7,24.2,35.2,24.2z"/>
</svg>
