<svg id="Layer_1" data-name="Layer 1" xmlns="http://www.w3.org/2000/svg" viewBox="0 0 68.68 26.16">
	<title>3</title>
	<path
		d="M5.91,10.72c-.57-.08-2-.08-2-.08h-.1s-1.44,0-2,.08c-1,.14-1.77.12-1.77,2.06V24.22a1.7,1.7,0,0,0,1.78,1.62h4a1.7,1.7,0,0,0,1.88-1.5s0-.08,0-.11V12.77C7.68,10.84,6.91,10.85,5.91,10.72Zm-2.83.38H4.53a.09.09,0,1,1,0,.19H3.08a.09.09,0,0,1,0-.19ZM4.7,25.16a.14.14,0,0,1-.14.14H3.13A.15.15,0,0,1,3,25.16V25a.14.14,0,0,1,.14-.14H4.56A.14.14,0,0,1,4.7,25Zm2.38-1.38H.53V12.34H7.08Z"
		transform="translate(-0.04)"/>
	<path
		d="M14.68,21.88h28.5a.82.82,0,0,0,.82-.82V.82A.82.82,0,0,0,43.18,0H14.68a.82.82,0,0,0-.82.82V21.1A.82.82,0,0,0,14.68,21.88ZM15.5,1.64H42.4v18.6H15.5Z"
		transform="translate(-0.04)"/>
	<path d="M45.92,24.16H11.77a1,1,0,1,0,0,2H45.92a1,1,0,0,0,0-2Z" transform="translate(-0.04)"/>
	<path
		d="M50.82,20.1a.45.45,0,1,1,.45-.45.45.45,0,0,1-.45.45Zm16.83-.3a.15.15,0,1,1,.15-.15.15.15,0,0,1-.15.15Zm-1-6V25.53H51.85V13.72Zm2.07.28a.87.87,0,0,0-.87-.87H50.66a.87.87,0,0,0-.88.86h0V25.25a.87.87,0,0,0,.87.87H67.81a.87.87,0,0,0,.87-.87h0Z"
		transform="translate(-0.04)"/>
</svg>