<?xml version="1.0" encoding="utf-8"?>
<!-- Generator: Adobe Illustrator 20.0.0, SVG Export Plug-In . SVG Version: 6.00 Build 0)  -->
<svg version="1.1" id="Layer_1" xmlns="http://www.w3.org/2000/svg" xmlns:xlink="http://www.w3.org/1999/xlink" x="0px" y="0px"
	 viewBox="0 0 49.1 31.7" style="enable-background:new 0 0 49.1 31.7;" xml:space="preserve">
<style type="text/css">
	.st0{fill:#00629B;}
</style>
<title>5</title>
<path class="st0" d="M48.6,0H0.5C0.4,0,0.2,0.1,0.1,0.1S0,0.4,0,0.5L0.1,29c0,0.3,0.2,0.5,0.5,0.5h22.1v0.4h-8.1
	c-0.1,0-0.3,0.1-0.4,0.2l-0.7,0.8c-0.1,0.1-0.2,0.4-0.1,0.5s0.3,0.3,0.5,0.3h21.4c0.2,0,0.4-0.1,0.5-0.3c0.1-0.2,0.1-0.4-0.1-0.5
	L35,30.1c-0.1-0.1-0.2-0.2-0.4-0.2h-8.1v-0.5h22.1c0.3,0,0.5-0.2,0.5-0.5V0.5C49.1,0.2,48.9,0,48.6,0z M1.8,26.8V1.8h45.6v25.1H1.8z
	"/>
</svg>
