<svg id="Layer_1" data-name="Layer 1" xmlns="http://www.w3.org/2000/svg" viewBox="0 0 71 31.68">
	<title>4</title>
	<g id="b">
		<path
			d="M14.64,30.35l-.72.84H35.24l-.67-.84H14.64m34-1.48V.5H.5L.59,29H23.21v1.39H26V28.87H48.6M47.9,1.26V27.33H1.28V1.26Z"/>
	</g>
	<path id="a"
	      d="M1.28,27.33V1.26H47.9V27.33Zm24.69,3V28.87H48.6V.5H.5L.59,29H23.21v1.39H34.57l.67.84H13.91l.72-.84h8.58"
	      fill="none" stroke="#00629b" stroke-linecap="round" stroke-linejoin="round"/>
	<path
		d="M53.14,24.7a.45.45,0,1,1,.45-.45.45.45,0,0,1-.45.45ZM70,24.37a.15.15,0,1,1,.15-.15.15.15,0,0,1-.15.15Zm-1-6V30.13H54.17V18.32Zm2,.28a.87.87,0,0,0-.87-.87H53a.87.87,0,0,0-.88.86h0V29.85a.87.87,0,0,0,.88.85H70.13a.87.87,0,0,0,.87-.87h0Z"/>
</svg>