<svg id="Layer_1" xmlns="http://www.w3.org/2000/svg" viewBox="0 0 726.6 571.7">
  <path fill="#EAEAEA" d="M726.6 571.7L367.1 212.1 7.6 571.7z"/>
  <path fill="#143257" d="M0 546.8l212.1-212.1L0 122.6z"/>
  <path fill="#FFF" stroke="#143257" stroke-width="7" stroke-miterlimit="10" d="M74.3 94.9h562.5v355.5H74.3z"/>
  <path fill="#FFF" stroke="#143257" stroke-width="7" stroke-miterlimit="10" d="M99.8 120.4h508.5v304.5H99.8z"/>
  <path fill="#0378BC" d="M120.8 138.4h466.4v267H120.8z"/>
  <path fill="none" stroke="#143257" stroke-width="7" stroke-miterlimit="10" d="M121.2 171.3h466M159.8 288.4h279v75h-279zM474.8 219.4h79.5v144h-79.5z"/>
  <path fill="#143257" d="M135.2 149.3h388v10h-388zM528.2 149.3h12v10h-12zM545.2 149.3h12v10h-12zM562.2 149.3h13v10h-13z"/>
  <path fill="#FFF" d="M159.8 194h175.9v17H159.8zM81.8 232.7h175.9v17H81.8z"/>
  <path fill="#FFF" stroke="#143257" stroke-width="7" stroke-miterlimit="10" d="M398.2 493.3h-91l7-26h76zM130.5 508.3h444.4v29H130.5z"/>
  <g fill="none" stroke="#143257" stroke-width="7" stroke-miterlimit="10">
    <path d="M580.2 0v47.3M641.6 61.3h-47.4M609.4 33L590 52M642.1 61l-47.4-.1M580.6 122.2l.1-47.4M609 90.1l-19-19.5M581.1 122.7l.1-47.4M519.9 61.2l47.3.1M552 89.6l19.4-19M519.4 61.7l47.3.1M580.9.5l-.1 47.3M552.5 32.6L571.4 52"/>
  </g>
  <path fill="none" stroke="#143257" stroke-width="7" stroke-miterlimit="10" d="M657 120.4h18.9M646 134.4l12.9 13.9M647.8 107.6l11.3-15.2"/>
</svg>
