<svg id="Layer_1" xmlns="http://www.w3.org/2000/svg" viewBox="0 0 726.6 579.9">
  <path fill="#EAEAEA" d="M726.6 579.9L367.1 220.4 7.6 579.9z"/>
  <path fill="#143257" d="M0 555.1L212.1 343 0 130.9z"/>
  <path fill="#FFF" stroke="#143257" stroke-width="7" stroke-miterlimit="10" d="M178.5 143.9h222v358.8h-222z"/>
  <path fill="none" stroke="#143257" stroke-width="7" stroke-miterlimit="10" d="M177.3 190h222M177.3 455h222"/>
  <g fill="#FFF" stroke="#143257" stroke-width="7" stroke-miterlimit="10">
    <path d="M342.5 328.2c12.9 0 14.8 4.7 14.8 10.5s-1.8 10.5-14.8 10.5M342.5 349.3c12.9 0 14.8 4.7 14.8 10.5s-1.8 10.5-14.8 10.5"/>
    <path d="M342.5 370.4c12.9 0 14.8 4.7 14.8 10.5s-1.8 10.5-14.8 10.5h-6.4c-7.2.2-116.9-1.9-116.9-1.9v-51.4s23.8-3.4 31.7-6.8c7.9-3.4 15.9-27.1 15.9-27.1 2.5-8.7 5.9-49.4 5.9-49.4s4.9-5.4 12.5-2.3c7.7 3.1 5.5 54.5 5.5 54.5s39.5-.3 45.3-.2l6.4.2c12.9 0 14.8 4.7 14.8 10.5s-1.8 10.5-14.8 10.5"/>
  </g>
  <path fill="#0378BC" d="M303.3 192V0h317v192H365.5l-46.2 50v-50z"/>
  <path fill="#FFF" d="M341.9 37.6h175.9v17H341.9zM341.9 80.5H448v17H341.9z"/>
  <path fill="#FFF" stroke="#143257" stroke-width="7" stroke-miterlimit="10" d="M460.8 249.5v-106h176v106h-141l-26 27.5v-27.5z"/>
  <path fill="#0378BC" d="M491.2 167h119.4v16.2H491.2zM548.8 198.7h119.4v16.2H548.8z"/>
  <g stroke="#143257" stroke-width="7" stroke-miterlimit="10">
    <path fill="#FFF" d="M232.3 196.5c0 32.6-15.1 61.6-38.8 80.4-17.6 14-39.8 22.4-64 22.4s-46.4-8.4-64-22.4c-23.6-18.8-38.8-47.9-38.8-80.4 0-56.8 46-102.8 102.8-102.8s102.8 46 102.8 102.8z"/>
    <circle fill="none" cx="129.5" cy="186.6" r="35.6"/>
    <path fill="none" d="M144.7 218.8c26.8 6.5 47 29.8 48.8 58.1-17.6 14-39.8 22.4-64 22.4s-46.4-8.4-64-22.4c1.8-28.3 22-51.6 48.8-58.1"/>
  </g>
  <path fill="none" stroke="#143257" stroke-width="7" stroke-miterlimit="10" d="M395.7 376.2c13.4-25.1 38.3-45.2 68.3-49.4M400 476.3c17.8 27 48.2 43 81.4 43 3.5 0 7-.2 10.4-.5M558 362.2c12.9 16.5 20.6 37.2 20.6 59.8 0 14.1-2.1 28.7-8.6 41"/>
  <circle fill="#0378BC" cx="541.7" cy="487.5" r="41.6"/>
  <circle fill="#143257" cx="393.4" cy="437.8" r="41.6"/>
  <circle fill="#03639B" cx="500.1" cy="334.6" r="41.6"/>
</svg>
