<svg id="Layer_1" xmlns="http://www.w3.org/2000/svg" viewBox="0 0 726.6 625.9">
  <path fill="#EAEAEA" d="M726.6 625.9L367.1 266.4 7.6 625.9z"/>
  <path fill="#143257" d="M0 601.1L212.1 389 0 176.9z"/>
  <path fill="none" stroke="#143257" stroke-width="7" stroke-miterlimit="10" d="M295.3 90.1l32.6 24M346.1 42.9l21.3 34.4M507.7 46.6l-22.9 33.3M423.8 24.2v40.4M555 96.2l-34.1 21.7"/>
  <path fill="#FFF" stroke="#143257" stroke-width="7" stroke-miterlimit="10" d="M104.1 161.2H352v367.5H104.1z"/>
  <path fill="#03639B" d="M136.8 192.7h175.9v17H136.8zM136.8 234h88v17h-88zM63.8 279.1h117v17h-117z"/>
  <path fill="#FFF" stroke="#143257" stroke-width="7" stroke-miterlimit="10" d="M149 613.4c0 1.7 2.1 2.6 3.4 1.4l100.8-83.9c.4-.4.9-.6 1.4-.6l177.5-.3c.4 0 .9-.1 1.2-.4l90.1-84.3s8.7-16.2-2.9-27.6c-12.7-12.3-24.3-6-24.3-6l-56.4 44.9h-161s-6.3-.4-6.3-7.9c0-9.6 6.3-9.1 6.3-9.1h81s13.7-4 13.7-22-13.7-21-13.7-21H232.6c-.5 0-1 .2-1.3.5l-42 32.7-43.8 34.2 3.5 149.4zM395.3 317.5h60l.3-49c38.2-13.6 65.5-50.1 65.5-92.9 0-54.5-44.1-98.6-98.6-98.6-54.5 0-98.6 44.2-98.6 98.6 0 45.1 30.2 83 71.5 94.8l-.1 47.1z"/>
  <path fill="none" stroke="#143257" stroke-width="7" stroke-miterlimit="10" d="M419.3 318V203c-16-2.2-23.4.3-23.3 11 .1 13.4 34 8.3 34 8.3"/>
  <path fill="none" stroke="#143257" stroke-width="7" stroke-miterlimit="10" d="M430.1 317.5l-.3-114.5c16.2-2.2 23.4.3 23.3 11-.1 13.4-34 8-34 8"/>
  <path fill="#143257" d="M392.4 331h67.3v40h-67.3zM546.1 241.1h47.7v261.7h-47.7zM569.9 156l-12.1 36h24z"/>
  <path fill="#FFF" stroke="#143257" stroke-width="7" stroke-miterlimit="10" d="M560.4 195.5l-10.3 34h39.3l-10.2-34zM589.4 516.5v2.8c0 5.6-4.6 14.4-10.2 14.3l-18.5-.1c-5.6 0-11.3-8.9-11.3-14.5v-2.8l40 .3z"/>
  <path fill="#0378BC" d="M104.7 0s-3.7 210.8 0 214.5L313.5 0H104.7zm31.5 28h104.7L134.2 146.8l2-118.8z"/>
</svg>
