<svg id="Layer_1" xmlns="http://www.w3.org/2000/svg" viewBox="0 0 726.6 526">
  <path fill="#EAEAEA" d="M726.6 526L367.1 166.5 7.6 526z"/>
  <path fill="#143257" d="M0 501.1L212.1 289 0 76.9z"/>
  <circle fill="#0378BC" cx="107.9" cy="294.8" r="41.6"/>
  <circle fill="#FFF" stroke="#143257" stroke-width="7" stroke-miterlimit="10" cx="177.9" cy="121.2" r="20.6"/>
  <circle fill="#0378BC" cx="446.6" cy="199.9" r="41.6"/>
  <circle fill="#0378BC" cx="608.1" cy="98.2" r="26.2"/>
  <circle fill="#0378BC" cx="260.9" cy="182.7" r="26.2"/>
  <path fill="none" stroke="#143257" stroke-width="7" stroke-miterlimit="10" d="M144.1 267.5l74.4-61.3M303.3 181.3l94.7 17.6M488.2 178.9l79.9-53.7"/>
  <g fill="none" stroke="#143257" stroke-width="7" stroke-miterlimit="10">
    <path d="M119.5 230.5l74.3-61.2M191.6 191.1l2.2-21.8-25 1.3"/>
  </g>
  <g fill="none" stroke="#143257" stroke-width="7" stroke-miterlimit="10">
    <path d="M469.7 138.3l78.6-55.8M544.5 104.2l3.8-21.7-25-.4"/>
  </g>
  <path fill="#0378BC" d="M66.3 438h590.2v30H66.3z"/>
  <path fill="#FFF" stroke="#143257" stroke-width="7" stroke-miterlimit="10" d="M242.8 243.7h55V412h-55zM157.4 301.5h55v110.6h-55zM72.4 357.1h55v55h-55zM328.3 220.7h55v191.4h-55zM509 190.9h55v221.2h-55zM421.1 262.1h55V412h-55zM598.5 156.5h55v255.6h-55z"/>
  <circle fill="#FFF" cx="260.5" cy="61.6" r="56.3"/>
  <g fill="none" stroke="#143257" stroke-width="7" stroke-miterlimit="10">
    <circle cx="260.5" cy="59.8" r="56.3"/>
    <path d="M313.9 77.5l-53.4-15.7-17.4-55.6M261 61.9l38.8-39.4"/>
  </g>
</svg>
