<svg id="Layer_1" xmlns="http://www.w3.org/2000/svg" viewBox="0 0 22.9 18.3">
  <path fill="#0D98D5" d="M22.9 2.2c-.8.4-1.7.6-2.7.7 1-.6 1.7-1.5 2.1-2.6-.9.5-1.9.9-3 1.1C18.4.6 17.2 0 15.8 0c-2.6 0-4.7 2.1-4.7 4.6 0 .4 0 .7.1 1.1-3.9-.2-7.4-2-9.7-4.8-.3.6-.5 1.4-.5 2.3 0 1.6.8 3 2 3.8-.7 0-1.4-.2-2.1-.6v.1c0 2.2 1.6 4.1 3.8 4.5-.4.1-.8.2-1.2.2-.3 0-.6 0-.9-.1.6 1.8 2.3 3.2 4.4 3.2-1.6 1.2-3.6 2-5.8 2-.4 0-.8 0-1.1-.1 2.1 1.3 4.5 2.1 7.2 2.1 8.6 0 13.4-7.1 13.4-13.2v-.6c.7-.6 1.5-1.4 2.2-2.3z"/>
</svg>
