<?xml version="1.0" encoding="utf-8"?>
<!-- Generator: Adobe Illustrator 21.0.2, SVG Export Plug-In . SVG Version: 6.00 Build 0)  -->
<svg version="1.1" id="Layer_1" xmlns="http://www.w3.org/2000/svg" xmlns:xlink="http://www.w3.org/1999/xlink" x="0px" y="0px"
	 viewBox="0 0 17.9 17.9" enable-background="new 0 0 17.9 17.9" xml:space="preserve">
<path d="M17.8,8.6c-1.2-1.2-5.2-5-8.8-5s-7.6,3.8-8.8,5C0,8.7,0,8.8,0,8.9c0,0.1,0,0.2,0.1,0.3c1.2,1.2,5.2,5,8.8,5
	c3.6,0,7.6-3.8,8.8-5c0.1-0.1,0.1-0.2,0.1-0.3C17.9,8.8,17.8,8.7,17.8,8.6z M8.9,10.7c-1,0-1.8-0.8-1.8-1.8c0-1,0.8-1.8,1.8-1.8
	c1,0,1.8,0.8,1.8,1.8C10.8,9.9,9.9,10.7,8.9,10.7z"/>
</svg>
