<?xml version="1.0" encoding="utf-8"?>
<!-- Generator: Adobe Illustrator 21.0.2, SVG Export Plug-In . SVG Version: 6.00 Build 0)  -->
<svg version="1.1" id="Layer_1" xmlns="http://www.w3.org/2000/svg" xmlns:xlink="http://www.w3.org/1999/xlink" x="0px" y="0px"
	 viewBox="0 0 50 50" enable-background="new 0 0 50 50" xml:space="preserve">
<path fill="#0D98D5" d="M50,13c-0.2,4.9-3.6,11.6-10.2,20C33,41.9,27.2,46.3,22.5,46.3c-2.9,0-5.4-2.7-7.4-8.1
	c-1.3-4.9-2.7-9.9-4-14.8C9.6,18,8,15.3,6.3,15.3c-0.4,0-1.7,0.8-3.9,2.4l-2.4-3c2.5-2.2,4.9-4.3,7.3-6.5c3.3-2.8,5.8-4.3,7.4-4.5
	c3.9-0.4,6.3,2.3,7.2,8c1,6.2,1.6,10,2,11.5c1.1,5.1,2.4,7.7,3.7,7.7c1,0,2.6-1.7,4.7-5c2.1-3.3,3.2-5.8,3.4-7.6
	c0.3-2.9-0.8-4.3-3.4-4.3c-1.2,0-2.4,0.3-3.7,0.8c2.5-8.1,7.2-12,14.1-11.8C47.8,3.2,50.3,6.5,50,13z"/>
</svg>
