<svg xmlns="http://www.w3.org/2000/svg" width="50" height="48.1" viewBox="0 0 50 48.1" overflow="scroll"><style>.st0{fill:#FFFFFF;}</style><path class="st0" d="M40.9 22.9H9.1c-5 0-9.1 4-9.1 9v7.2c0 5 4.1 9 9.1 9h31.7c5 0 9.1-4 9.1-9v-7.2c.1-5-4-9-9-9zm-25.1 5.6h-3v14.4H10V28.5H7.1V26h8.7v2.5zm8.3 14.4h-2.5v-1.4c-.5.5-1 .9-1.5 1.1-.5.3-1 .4-1.5.4-.6 0-1-.2-1.3-.6-.3-.4-.4-.9-.4-1.7V30.5h2.5V40c0 .3.1.5.2.6.1.1.3.2.5.2s.4-.1.7-.3c.3-.2.5-.4.8-.7v-9.5h2.5v12.6zm8.6-.5c-.4.5-1 .7-1.7.7-.5 0-.9-.1-1.3-.3-.4-.2-.8-.5-1.1-.8v1H26V26.1h2.6v5.4c.3-.4.7-.7 1.1-.9.4-.2.8-.3 1.2-.3.8 0 1.4.3 1.8.8.4.5.6 1.3.6 2.3v6.9c0 1-.2 1.6-.6 2.1zm9.4-5.4h-4.8v2.3c0 .7.1 1.1.2 1.4.2.3.5.4.9.4s.7-.1.9-.3c.2-.2.3-.7.3-1.4v-.6h2.6v.6c0 1.3-.3 2.2-1 2.9-.6.6-1.6 1-2.8 1-1.1 0-2-.3-2.7-1-.6-.7-1-1.6-1-2.8v-5.6c0-1.1.4-2 1.1-2.6.7-.7 1.6-1 2.8-1 1.2 0 2 .3 2.7.9.6.6.9 1.5.9 2.7V37zm-3.7-4.6c-.4 0-.7.1-.9.3-.2.2-.3.6-.3 1.1v1.3h2.2v-1.3c0-.5-.1-.9-.3-1.1-.1-.2-.3-.3-.7-.3zm-8.7-.1c-.2 0-.4 0-.5.1-.2.1-.4.2-.5.4v7.8c.2.2.4.4.6.4.2.1.4.1.6.1.3 0 .5-.1.7-.3.1-.2.2-.5.2-.9v-6.4c0-.4-.1-.7-.3-1-.2-.1-.5-.2-.8-.2zM13.3 18.6h3.2v-7.7L20.2 0H17l-2 7.4h-.2L12.7 0H9.5l3.8 11.2v7.4zm11.3.3c1.3 0 2.3-.3 3-1 .7-.7 1.1-1.6 1.1-2.8v-7c0-1-.4-1.9-1.1-2.6-.8-.7-1.7-1-2.9-1-1.3 0-2.3.3-3.1.9-.8.6-1.1 1.5-1.1 2.5V15c0 1.2.4 2.1 1.1 2.8.7.8 1.7 1.1 3 1.1zm-1.2-11c0-.3.1-.5.3-.7.2-.2.5-.3.9-.3s.7.1.9.3c.2.2.3.4.3.7v7.5c0 .4-.1.7-.3.9-.2.2-.5.3-.9.3s-.7-.1-.9-.3c-.2-.2-.3-.5-.3-.9V7.9zM33 18.8c.5 0 1.1-.2 1.7-.4.6-.3 1.1-.7 1.6-1.3v1.5h2.8V4.9h-2.8v10.4c-.3.3-.6.5-.9.7-.3.2-.6.3-.8.3-.3 0-.5-.1-.6-.2-.1-.1-.2-.4-.2-.7V4.9H31v11.5c0 .8.2 1.4.5 1.8.4.4.9.6 1.5.6z"/></svg>